solid 카드
facet normal 0.0 -1.0 0.0
outer loop
vertex 63.46112054804074 51.471051446732865 2.500000000000722
vertex 51.46112054804074 51.471051446732865 7.219114195322617e-13
vertex 63.46112054804074 51.471051446732865 7.219114195322617e-13
endloop
endfacet
facet normal 0.0 -1.0 0.0
outer loop
vertex 51.46112054804074 51.471051446732865 7.219114195322617e-13
vertex 63.46112054804074 51.471051446732865 2.500000000000722
vertex 51.46112054804074 51.471051446732865 2.500000000000722
endloop
endfacet
facet normal 0.0 1.0 0.0
outer loop
vertex 51.46112054804074 109.47105144673283 2.500000000000722
vertex 63.46112054804074 109.47105144673283 7.219114195322617e-13
vertex 51.46112054804074 109.47105144673283 7.219114195322617e-13
endloop
endfacet
facet normal 0.0 1.0 0.0
outer loop
vertex 63.46112054804074 109.47105144673283 7.219114195322617e-13
vertex 51.46112054804074 109.47105144673283 2.500000000000722
vertex 63.46112054804074 109.47105144673283 2.500000000000722
endloop
endfacet
facet normal 0.0 0.0 1.0
outer loop
vertex 63.46112054804074 51.471051446732865 2.500000000000722
vertex 51.46112054804074 109.47105144673283 2.500000000000722
vertex 51.46112054804074 51.471051446732865 2.500000000000722
endloop
endfacet
facet normal 0.0 0.0 1.0
outer loop
vertex 51.46112054804074 109.47105144673283 2.500000000000722
vertex 63.46112054804074 51.471051446732865 2.500000000000722
vertex 63.46112054804074 109.47105144673283 2.500000000000722
endloop
endfacet
facet normal 0.0 0.0 1.0
outer loop
vertex 65.56112054804073 62.49933954175201 1.200000000000722
vertex 63.46112054804074 65.47105144673284 1.200000000000722
vertex 63.46112054804074 62.49933954175201 1.200000000000722
endloop
endfacet
facet normal 0.0 0.0 1.0
outer loop
vertex 63.46112054804074 65.47105144673284 1.200000000000722
vertex 65.56112054804073 62.49933954175201 1.200000000000722
vertex 65.56112054804073 65.47105144673284 1.200000000000722
endloop
endfacet
facet normal -1.0 0.0 0.0
outer loop
vertex 51.46112054804074 109.47105144673283 2.500000000000722
vertex 51.46112054804074 51.471051446732865 7.219114195322617e-13
vertex 51.46112054804074 51.471051446732865 2.500000000000722
endloop
endfacet
facet normal -1.0 0.0 0.0
outer loop
vertex 51.46112054804074 51.471051446732865 7.219114195322617e-13
vertex 51.46112054804074 109.47105144673283 2.500000000000722
vertex 51.46112054804074 109.47105144673283 7.219114195322617e-13
endloop
endfacet
facet normal 1.0 0.0 0.0
outer loop
vertex 63.46112054804074 70.47105144673286 7.219114195322617e-13
vertex 63.46112054804074 65.47105144673284 1.200000000000722
vertex 63.46112054804074 65.47105144673284 7.219114195322617e-13
endloop
endfacet
facet normal 1.0 0.0 0.0
outer loop
vertex 63.46112054804074 87.39610404967769 7.219114195322617e-13
vertex 63.46112054804074 73.5002888660115 1.2000000000007234
vertex 63.46112054804074 73.5002888660115 7.219114195322617e-13
endloop
endfacet
facet normal 1.0 0.0 0.0
outer loop
vertex 63.46112054804074 95.47105144673286 7.219114195322617e-13
vertex 63.46112054804074 90.47105144673286 1.2000000000007254
vertex 63.46112054804074 90.47105144673286 7.219114195322617e-13
endloop
endfacet
facet normal 1.0 0.0 0.0
outer loop
vertex 63.46112054804074 109.47105144673283 7.219114195322617e-13
vertex 63.46112054804074 98.50602490392589 1.2000000000007196
vertex 63.46112054804074 98.50602490392589 7.219114195322617e-13
endloop
endfacet
facet normal 1.0 0.0 0.0
outer loop
vertex 63.46112054804074 62.49933954175201 7.219114195322617e-13
vertex 63.46112054804074 51.471051446732865 2.500000000000722
vertex 63.46112054804074 51.471051446732865 7.219114195322617e-13
endloop
endfacet
facet normal 1.0 0.0 0.0
outer loop
vertex 63.46112054804074 51.471051446732865 2.500000000000722
vertex 63.46112054804074 62.49933954175201 7.219114195322617e-13
vertex 63.46112054804074 62.49933954175201 1.200000000000722
endloop
endfacet
facet normal 1.0 0.0 0.0
outer loop
vertex 63.46112054804074 51.471051446732865 2.500000000000722
vertex 63.46112054804074 62.49933954175201 1.200000000000722
vertex 63.46112054804074 109.47105144673283 2.500000000000722
endloop
endfacet
facet normal 1.0 0.0 0.0
outer loop
vertex 63.46112054804074 109.47105144673283 2.500000000000722
vertex 63.46112054804074 62.49933954175201 1.200000000000722
vertex 63.46112054804074 65.47105144673284 1.200000000000722
endloop
endfacet
facet normal 1.0 0.0 0.0
outer loop
vertex 63.46112054804074 109.47105144673283 2.500000000000722
vertex 63.46112054804074 65.47105144673284 1.200000000000722
vertex 63.46112054804074 70.47105144673286 1.2000000000007234
endloop
endfacet
facet normal 1.0 0.0 0.0
outer loop
vertex 63.46112054804074 70.47105144673286 1.2000000000007234
vertex 63.46112054804074 65.47105144673284 1.200000000000722
vertex 63.46112054804074 70.47105144673286 7.219114195322617e-13
endloop
endfacet
facet normal 1.0 0.0 0.0
outer loop
vertex 63.46112054804074 109.47105144673283 2.500000000000722
vertex 63.46112054804074 70.47105144673286 1.2000000000007234
vertex 63.46112054804074 73.5002888660115 1.2000000000007234
endloop
endfacet
facet normal 1.0 0.0 0.0
outer loop
vertex 63.46112054804074 109.47105144673283 2.500000000000722
vertex 63.46112054804074 73.5002888660115 1.2000000000007234
vertex 63.46112054804074 87.39610404967769 1.2000000000007254
endloop
endfacet
facet normal 1.0 0.0 0.0
outer loop
vertex 63.46112054804074 87.39610404967769 1.2000000000007254
vertex 63.46112054804074 73.5002888660115 1.2000000000007234
vertex 63.46112054804074 87.39610404967769 7.219114195322617e-13
endloop
endfacet
facet normal 1.0 0.0 0.0
outer loop
vertex 63.46112054804074 109.47105144673283 2.500000000000722
vertex 63.46112054804074 87.39610404967769 1.2000000000007254
vertex 63.46112054804074 90.47105144673286 1.2000000000007254
endloop
endfacet
facet normal 1.0 0.0 0.0
outer loop
vertex 63.46112054804074 109.47105144673283 2.500000000000722
vertex 63.46112054804074 90.47105144673286 1.2000000000007254
vertex 63.46112054804074 95.47105144673286 1.2000000000007196
endloop
endfacet
facet normal 1.0 0.0 0.0
outer loop
vertex 63.46112054804074 95.47105144673286 1.2000000000007196
vertex 63.46112054804074 90.47105144673286 1.2000000000007254
vertex 63.46112054804074 95.47105144673286 7.219114195322617e-13
endloop
endfacet
facet normal 1.0 0.0 0.0
outer loop
vertex 63.46112054804074 109.47105144673283 2.500000000000722
vertex 63.46112054804074 95.47105144673286 1.2000000000007196
vertex 63.46112054804074 98.50602490392589 1.2000000000007196
endloop
endfacet
facet normal 1.0 0.0 0.0
outer loop
vertex 63.46112054804074 109.47105144673283 2.500000000000722
vertex 63.46112054804074 98.50602490392589 1.2000000000007196
vertex 63.46112054804074 109.47105144673283 7.219114195322617e-13
endloop
endfacet
facet normal 1.0 0.0 0.0
outer loop
vertex 81.96112054804074 106.47105144673284 7.219114195322617e-13
vertex 81.96112054804074 54.47105144673287 3.0000000000007163
vertex 81.96112054804074 54.47105144673287 7.219114195322617e-13
endloop
endfacet
facet normal 1.0 0.0 0.0
outer loop
vertex 81.96112054804074 54.47105144673287 3.0000000000007163
vertex 81.96112054804074 106.47105144673284 7.219114195322617e-13
vertex 81.96112054804074 106.47105144673284 3.0000000000007216
endloop
endfacet
facet normal -0.0 -1.0 -0.0
outer loop
vertex 72.46112054804075 62.4013929072192 1.2000000000007196
vertex 69.06112054804075 62.4013929072192 7.219114195322617e-13
vertex 72.46112054804075 62.4013929072192 7.219114195322617e-13
endloop
endfacet
facet normal -0.0 -1.0 -0.0
outer loop
vertex 69.06112054804075 62.4013929072192 7.219114195322617e-13
vertex 72.46112054804075 62.4013929072192 1.2000000000007196
vertex 69.06112054804075 62.4013929072192 1.2000000000007196
endloop
endfacet
facet normal -0.0 -1.0 -0.0
outer loop
vertex 65.56112054804073 95.47105144673286 1.2000000000007196
vertex 63.46112054804074 95.47105144673286 7.219114195322617e-13
vertex 65.56112054804073 95.47105144673286 7.219114195322617e-13
endloop
endfacet
facet normal -0.0 -1.0 -0.0
outer loop
vertex 63.46112054804074 95.47105144673286 7.219114195322617e-13
vertex 65.56112054804073 95.47105144673286 1.2000000000007196
vertex 63.46112054804074 95.47105144673286 1.2000000000007196
endloop
endfacet
facet normal 0.0 -1.0 0.0
outer loop
vertex 69.06112054804075 51.471051446732865 2.500000000000722
vertex 65.56112054804073 51.471051446732865 7.219114195322617e-13
vertex 69.06112054804075 51.471051446732865 7.219114195322617e-13
endloop
endfacet
facet normal 0.0 -1.0 0.0
outer loop
vertex 65.56112054804073 51.471051446732865 7.219114195322617e-13
vertex 69.06112054804075 51.471051446732865 2.500000000000722
vertex 65.56112054804073 51.471051446732865 2.500000000000722
endloop
endfacet
facet normal 1.0 0.0 0.0
outer loop
vertex 89.96112054804074 112.47105144673283 7.219114195322617e-13
vertex 89.96112054804074 108.47105144673284 3.0000000000007216
vertex 89.96112054804074 108.47105144673284 7.219114195322617e-13
endloop
endfacet
facet normal 1.0 0.0 0.0
outer loop
vertex 89.96112054804074 108.47105144673284 3.0000000000007216
vertex 89.96112054804074 112.47105144673283 7.219114195322617e-13
vertex 89.96112054804074 112.47105144673283 3.0000000000007216
endloop
endfacet
facet normal 1.9419908068472214e-16 -6.837888651290956e-17 1.0
outer loop
vertex 77.96112054804074 51.471051446732865 3.000000000000722
vertex 81.96112054804074 54.47105144673287 3.0000000000007163
vertex 77.96112054804074 109.47105144673286 3.000000000000722
endloop
endfacet
facet normal 1.9419908068472214e-16 -6.837888651290956e-17 1.0
outer loop
vertex 81.96112054804074 54.47105144673287 3.0000000000007163
vertex 77.96112054804074 51.471051446732865 3.000000000000722
vertex 89.96112054804074 48.47105144673286 3.0000000000007163
endloop
endfacet
facet normal 1.9419908068472214e-16 -6.837888651290956e-17 1.0
outer loop
vertex 81.96112054804074 54.47105144673287 3.0000000000007163
vertex 89.96112054804074 48.47105144673286 3.0000000000007163
vertex 89.96112054804074 52.471051446732865 3.0000000000007163
endloop
endfacet
facet normal 1.9419908068472214e-16 -6.837888651290956e-17 1.0
outer loop
vertex 77.96112054804074 109.47105144673286 3.000000000000722
vertex 81.96112054804074 106.47105144673284 3.0000000000007216
vertex 89.96112054804074 112.47105144673283 3.0000000000007216
endloop
endfacet
facet normal 1.9419908068472214e-16 -6.837888651290956e-17 1.0
outer loop
vertex 81.96112054804074 106.47105144673284 3.0000000000007216
vertex 77.96112054804074 109.47105144673286 3.000000000000722
vertex 81.96112054804074 54.47105144673287 3.0000000000007163
endloop
endfacet
facet normal 1.9419908068472214e-16 -6.837888651290956e-17 1.0
outer loop
vertex 89.96112054804074 112.47105144673283 3.0000000000007216
vertex 81.96112054804074 106.47105144673284 3.0000000000007216
vertex 89.96112054804074 108.47105144673284 3.0000000000007216
endloop
endfacet
facet normal 0.24253562503633136 -0.9701425001453323 0.0
outer loop
vertex 89.96112054804074 108.47105144673284 3.0000000000007216
vertex 81.96112054804074 106.47105144673284 7.219114195322617e-13
vertex 89.96112054804074 108.47105144673284 7.219114195322617e-13
endloop
endfacet
facet normal 0.24253562503633136 -0.9701425001453323 0.0
outer loop
vertex 81.96112054804074 106.47105144673284 7.219114195322617e-13
vertex 89.96112054804074 108.47105144673284 3.0000000000007216
vertex 81.96112054804074 106.47105144673284 3.0000000000007216
endloop
endfacet
facet normal -0.24253562503633183 0.9701425001453323 1.2751603950729594e-31
outer loop
vertex 77.96112054804074 109.47105144673286 3.000000000000722
vertex 89.96112054804074 112.47105144673283 7.219114195322617e-13
vertex 77.96112054804074 109.47105144673286 7.219114195322617e-13
endloop
endfacet
facet normal -0.24253562503633183 0.9701425001453323 1.2751603950729594e-31
outer loop
vertex 89.96112054804074 112.47105144673283 7.219114195322617e-13
vertex 77.96112054804074 109.47105144673286 3.000000000000722
vertex 89.96112054804074 112.47105144673283 3.0000000000007216
endloop
endfacet
facet normal 0.0 1.0 0.0
outer loop
vertex 72.46112054804075 114.47105144673287 5.000000000000722
vertex 77.96112054804074 114.47105144673287 7.219114195322617e-13
vertex 72.46112054804075 114.47105144673287 7.219114195322617e-13
endloop
endfacet
facet normal 0.0 1.0 0.0
outer loop
vertex 77.96112054804074 114.47105144673287 7.219114195322617e-13
vertex 72.46112054804075 114.47105144673287 5.000000000000722
vertex 77.96112054804074 114.47105144673287 5.000000000000722
endloop
endfacet
facet normal 0.0 0.0 -1.0
outer loop
vertex 77.96112054804074 114.47105144673287 7.219114195322617e-13
vertex 72.46112054804075 98.45038997883444 7.219114195322617e-13
vertex 72.46112054804075 114.47105144673287 7.219114195322617e-13
endloop
endfacet
facet normal 0.0 0.0 -1.0
outer loop
vertex 72.46112054804075 98.45038997883444 7.219114195322617e-13
vertex 77.96112054804074 114.47105144673287 7.219114195322617e-13
vertex 72.46112054804075 95.47105144673286 7.219114195322617e-13
endloop
endfacet
facet normal 0.0 0.0 -1.0
outer loop
vertex 72.46112054804075 95.47105144673286 7.219114195322617e-13
vertex 77.96112054804074 114.47105144673287 7.219114195322617e-13
vertex 72.46112054804075 90.47105144673286 7.219114195322617e-13
endloop
endfacet
facet normal 0.0 0.0 -1.0
outer loop
vertex 72.46112054804075 90.47105144673286 7.219114195322617e-13
vertex 77.96112054804074 114.47105144673287 7.219114195322617e-13
vertex 72.46112054804075 87.46573413437655 7.219114195322617e-13
endloop
endfacet
facet normal 0.0 0.0 -1.0
outer loop
vertex 72.46112054804075 87.46573413437655 7.219114195322617e-13
vertex 77.96112054804074 114.47105144673287 7.219114195322617e-13
vertex 72.46112054804075 73.43276589103567 7.219114195322617e-13
endloop
endfacet
facet normal 0.0 0.0 -1.0
outer loop
vertex 72.46112054804075 73.43276589103567 7.219114195322617e-13
vertex 77.96112054804074 114.47105144673287 7.219114195322617e-13
vertex 72.46112054804075 70.47105144673286 7.219114195322617e-13
endloop
endfacet
facet normal 0.0 0.0 -1.0
outer loop
vertex 72.46112054804075 70.47105144673286 7.219114195322617e-13
vertex 77.96112054804074 114.47105144673287 7.219114195322617e-13
vertex 72.46112054804075 65.47105144673284 7.219114195322617e-13
endloop
endfacet
facet normal 0.0 0.0 -1.0
outer loop
vertex 72.46112054804075 65.47105144673284 7.219114195322617e-13
vertex 77.96112054804074 114.47105144673287 7.219114195322617e-13
vertex 72.46112054804075 62.4013929072192 7.219114195322617e-13
endloop
endfacet
facet normal 0.0 0.0 -1.0
outer loop
vertex 72.46112054804075 62.4013929072192 7.219114195322617e-13
vertex 77.96112054804074 114.47105144673287 7.219114195322617e-13
vertex 72.46112054804075 46.471051446732865 7.219114195322617e-13
endloop
endfacet
facet normal 0.0 0.0 -1.0
outer loop
vertex 72.46112054804075 46.471051446732865 7.219114195322617e-13
vertex 77.96112054804074 114.47105144673287 7.219114195322617e-13
vertex 77.96112054804074 46.471051446732865 7.219114195322617e-13
endloop
endfacet
facet normal 0.0 0.0 -1.0
outer loop
vertex 77.96112054804074 46.471051446732865 7.219114195322617e-13
vertex 77.96112054804074 114.47105144673287 7.219114195322617e-13
vertex 77.96112054804074 109.47105144673286 7.219114195322617e-13
endloop
endfacet
facet normal 0.0 0.0 -1.0
outer loop
vertex 77.96112054804074 46.471051446732865 7.219114195322617e-13
vertex 77.96112054804074 109.47105144673286 7.219114195322617e-13
vertex 77.96112054804074 51.471051446732865 7.219114195322617e-13
endloop
endfacet
facet normal 0.0 0.0 -1.0
outer loop
vertex 72.46112054804075 65.47105144673284 7.219114195322617e-13
vertex 69.06112054804075 62.4013929072192 7.219114195322617e-13
vertex 69.06112054804075 65.47105144673284 7.219114195322617e-13
endloop
endfacet
facet normal 0.0 0.0 -1.0
outer loop
vertex 69.06112054804075 62.4013929072192 7.219114195322617e-13
vertex 72.46112054804075 65.47105144673284 7.219114195322617e-13
vertex 72.46112054804075 62.4013929072192 7.219114195322617e-13
endloop
endfacet
facet normal 0.0 0.0 -1.0
outer loop
vertex 72.46112054804075 73.43276589103567 7.219114195322617e-13
vertex 69.06112054804075 70.47105144673286 7.219114195322617e-13
vertex 69.06112054804075 73.43276589103567 7.219114195322617e-13
endloop
endfacet
facet normal 0.0 0.0 -1.0
outer loop
vertex 69.06112054804075 70.47105144673286 7.219114195322617e-13
vertex 72.46112054804075 73.43276589103567 7.219114195322617e-13
vertex 72.46112054804075 70.47105144673286 7.219114195322617e-13
endloop
endfacet
facet normal 0.0 0.0 -1.0
outer loop
vertex 72.46112054804075 90.47105144673286 7.219114195322617e-13
vertex 69.06112054804075 87.46573413437655 7.219114195322617e-13
vertex 69.06112054804075 90.47105144673286 7.219114195322617e-13
endloop
endfacet
facet normal 0.0 0.0 -1.0
outer loop
vertex 69.06112054804075 87.46573413437655 7.219114195322617e-13
vertex 72.46112054804075 90.47105144673286 7.219114195322617e-13
vertex 72.46112054804075 87.46573413437655 7.219114195322617e-13
endloop
endfacet
facet normal 0.0 0.0 -1.0
outer loop
vertex 72.46112054804075 98.45038997883444 7.219114195322617e-13
vertex 69.06112054804075 95.47105144673286 7.219114195322617e-13
vertex 69.06112054804075 98.45038997883444 7.219114195322617e-13
endloop
endfacet
facet normal 0.0 0.0 -1.0
outer loop
vertex 69.06112054804075 95.47105144673286 7.219114195322617e-13
vertex 72.46112054804075 98.45038997883444 7.219114195322617e-13
vertex 72.46112054804075 95.47105144673286 7.219114195322617e-13
endloop
endfacet
facet normal 0.0 0.0 -1.0
outer loop
vertex 69.06112054804075 109.47105144673286 7.219114195322617e-13
vertex 65.56112054804073 98.50602490392589 7.219114195322617e-13
vertex 65.56112054804073 109.47105144673286 7.219114195322617e-13
endloop
endfacet
facet normal 0.0 0.0 -1.0
outer loop
vertex 65.56112054804073 98.50602490392589 7.219114195322617e-13
vertex 69.06112054804075 109.47105144673286 7.219114195322617e-13
vertex 65.56112054804073 95.47105144673286 7.219114195322617e-13
endloop
endfacet
facet normal 0.0 0.0 -1.0
outer loop
vertex 65.56112054804073 95.47105144673286 7.219114195322617e-13
vertex 69.06112054804075 109.47105144673286 7.219114195322617e-13
vertex 65.56112054804073 90.47105144673286 7.219114195322617e-13
endloop
endfacet
facet normal 0.0 0.0 -1.0
outer loop
vertex 65.56112054804073 90.47105144673286 7.219114195322617e-13
vertex 69.06112054804075 109.47105144673286 7.219114195322617e-13
vertex 65.56112054804073 87.39610404967769 7.219114195322617e-13
endloop
endfacet
facet normal 0.0 0.0 -1.0
outer loop
vertex 65.56112054804073 87.39610404967769 7.219114195322617e-13
vertex 69.06112054804075 109.47105144673286 7.219114195322617e-13
vertex 65.56112054804073 73.5002888660115 7.219114195322617e-13
endloop
endfacet
facet normal 0.0 0.0 -1.0
outer loop
vertex 65.56112054804073 73.5002888660115 7.219114195322617e-13
vertex 69.06112054804075 109.47105144673286 7.219114195322617e-13
vertex 65.56112054804073 70.47105144673286 7.219114195322617e-13
endloop
endfacet
facet normal 0.0 0.0 -1.0
outer loop
vertex 65.56112054804073 70.47105144673286 7.219114195322617e-13
vertex 69.06112054804075 109.47105144673286 7.219114195322617e-13
vertex 65.56112054804073 65.47105144673284 7.219114195322617e-13
endloop
endfacet
facet normal 0.0 0.0 -1.0
outer loop
vertex 65.56112054804073 65.47105144673284 7.219114195322617e-13
vertex 69.06112054804075 109.47105144673286 7.219114195322617e-13
vertex 65.56112054804073 62.49933954175201 7.219114195322617e-13
endloop
endfacet
facet normal 0.0 0.0 -1.0
outer loop
vertex 65.56112054804073 62.49933954175201 7.219114195322617e-13
vertex 69.06112054804075 109.47105144673286 7.219114195322617e-13
vertex 65.56112054804073 51.471051446732865 7.219114195322617e-13
endloop
endfacet
facet normal 0.0 0.0 -1.0
outer loop
vertex 65.56112054804073 51.471051446732865 7.219114195322617e-13
vertex 69.06112054804075 109.47105144673286 7.219114195322617e-13
vertex 69.06112054804075 51.471051446732865 7.219114195322617e-13
endloop
endfacet
facet normal 0.0 0.0 -1.0
outer loop
vertex 69.06112054804075 51.471051446732865 7.219114195322617e-13
vertex 69.06112054804075 109.47105144673286 7.219114195322617e-13
vertex 69.06112054804075 98.45038997883444 7.219114195322617e-13
endloop
endfacet
facet normal 0.0 0.0 -1.0
outer loop
vertex 69.06112054804075 51.471051446732865 7.219114195322617e-13
vertex 69.06112054804075 98.45038997883444 7.219114195322617e-13
vertex 69.06112054804075 95.47105144673286 7.219114195322617e-13
endloop
endfacet
facet normal 0.0 0.0 -1.0
outer loop
vertex 69.06112054804075 51.471051446732865 7.219114195322617e-13
vertex 69.06112054804075 95.47105144673286 7.219114195322617e-13
vertex 69.06112054804075 90.47105144673286 7.219114195322617e-13
endloop
endfacet
facet normal 0.0 0.0 -1.0
outer loop
vertex 69.06112054804075 51.471051446732865 7.219114195322617e-13
vertex 69.06112054804075 90.47105144673286 7.219114195322617e-13
vertex 69.06112054804075 87.46573413437655 7.219114195322617e-13
endloop
endfacet
facet normal 0.0 0.0 -1.0
outer loop
vertex 69.06112054804075 51.471051446732865 7.219114195322617e-13
vertex 69.06112054804075 87.46573413437655 7.219114195322617e-13
vertex 69.06112054804075 73.43276589103567 7.219114195322617e-13
endloop
endfacet
facet normal 0.0 0.0 -1.0
outer loop
vertex 69.06112054804075 51.471051446732865 7.219114195322617e-13
vertex 69.06112054804075 73.43276589103567 7.219114195322617e-13
vertex 69.06112054804075 70.47105144673286 7.219114195322617e-13
endloop
endfacet
facet normal 0.0 0.0 -1.0
outer loop
vertex 69.06112054804075 51.471051446732865 7.219114195322617e-13
vertex 69.06112054804075 70.47105144673286 7.219114195322617e-13
vertex 69.06112054804075 65.47105144673284 7.219114195322617e-13
endloop
endfacet
facet normal 0.0 0.0 -1.0
outer loop
vertex 69.06112054804075 51.471051446732865 7.219114195322617e-13
vertex 69.06112054804075 65.47105144673284 7.219114195322617e-13
vertex 69.06112054804075 62.4013929072192 7.219114195322617e-13
endloop
endfacet
facet normal 0.0 0.0 -1.0
outer loop
vertex 65.56112054804073 65.47105144673284 7.219114195322617e-13
vertex 63.46112054804074 62.49933954175201 7.219114195322617e-13
vertex 63.46112054804074 65.47105144673284 7.219114195322617e-13
endloop
endfacet
facet normal 0.0 0.0 -1.0
outer loop
vertex 63.46112054804074 62.49933954175201 7.219114195322617e-13
vertex 65.56112054804073 65.47105144673284 7.219114195322617e-13
vertex 65.56112054804073 62.49933954175201 7.219114195322617e-13
endloop
endfacet
facet normal 0.0 0.0 -1.0
outer loop
vertex 65.56112054804073 73.5002888660115 7.219114195322617e-13
vertex 63.46112054804074 70.47105144673286 7.219114195322617e-13
vertex 63.46112054804074 73.5002888660115 7.219114195322617e-13
endloop
endfacet
facet normal 0.0 0.0 -1.0
outer loop
vertex 63.46112054804074 70.47105144673286 7.219114195322617e-13
vertex 65.56112054804073 73.5002888660115 7.219114195322617e-13
vertex 65.56112054804073 70.47105144673286 7.219114195322617e-13
endloop
endfacet
facet normal 0.0 0.0 -1.0
outer loop
vertex 65.56112054804073 90.47105144673286 7.219114195322617e-13
vertex 63.46112054804074 87.39610404967769 7.219114195322617e-13
vertex 63.46112054804074 90.47105144673286 7.219114195322617e-13
endloop
endfacet
facet normal 0.0 0.0 -1.0
outer loop
vertex 63.46112054804074 87.39610404967769 7.219114195322617e-13
vertex 65.56112054804073 90.47105144673286 7.219114195322617e-13
vertex 65.56112054804073 87.39610404967769 7.219114195322617e-13
endloop
endfacet
facet normal 0.0 0.0 -1.0
outer loop
vertex 65.56112054804073 98.50602490392589 7.219114195322617e-13
vertex 63.46112054804074 95.47105144673286 7.219114195322617e-13
vertex 63.46112054804074 98.50602490392589 7.219114195322617e-13
endloop
endfacet
facet normal 0.0 0.0 -1.0
outer loop
vertex 63.46112054804074 95.47105144673286 7.219114195322617e-13
vertex 65.56112054804073 98.50602490392589 7.219114195322617e-13
vertex 65.56112054804073 95.47105144673286 7.219114195322617e-13
endloop
endfacet
facet normal 0.0 0.0 -1.0
outer loop
vertex 63.46112054804074 109.47105144673283 7.219114195322617e-13
vertex 51.46112054804074 51.471051446732865 7.219114195322617e-13
vertex 51.46112054804074 109.47105144673283 7.219114195322617e-13
endloop
endfacet
facet normal 0.0 0.0 -1.0
outer loop
vertex 51.46112054804074 51.471051446732865 7.219114195322617e-13
vertex 63.46112054804074 109.47105144673283 7.219114195322617e-13
vertex 63.46112054804074 51.471051446732865 7.219114195322617e-13
endloop
endfacet
facet normal 0.0 0.0 -1.0
outer loop
vertex 63.46112054804074 51.471051446732865 7.219114195322617e-13
vertex 63.46112054804074 109.47105144673283 7.219114195322617e-13
vertex 63.46112054804074 98.50602490392589 7.219114195322617e-13
endloop
endfacet
facet normal 0.0 0.0 -1.0
outer loop
vertex 63.46112054804074 51.471051446732865 7.219114195322617e-13
vertex 63.46112054804074 98.50602490392589 7.219114195322617e-13
vertex 63.46112054804074 95.47105144673286 7.219114195322617e-13
endloop
endfacet
facet normal 0.0 0.0 -1.0
outer loop
vertex 63.46112054804074 51.471051446732865 7.219114195322617e-13
vertex 63.46112054804074 95.47105144673286 7.219114195322617e-13
vertex 63.46112054804074 90.47105144673286 7.219114195322617e-13
endloop
endfacet
facet normal 0.0 0.0 -1.0
outer loop
vertex 63.46112054804074 51.471051446732865 7.219114195322617e-13
vertex 63.46112054804074 90.47105144673286 7.219114195322617e-13
vertex 63.46112054804074 87.39610404967769 7.219114195322617e-13
endloop
endfacet
facet normal 0.0 0.0 -1.0
outer loop
vertex 63.46112054804074 51.471051446732865 7.219114195322617e-13
vertex 63.46112054804074 87.39610404967769 7.219114195322617e-13
vertex 63.46112054804074 73.5002888660115 7.219114195322617e-13
endloop
endfacet
facet normal 0.0 0.0 -1.0
outer loop
vertex 63.46112054804074 51.471051446732865 7.219114195322617e-13
vertex 63.46112054804074 73.5002888660115 7.219114195322617e-13
vertex 63.46112054804074 70.47105144673286 7.219114195322617e-13
endloop
endfacet
facet normal 0.0 0.0 -1.0
outer loop
vertex 63.46112054804074 51.471051446732865 7.219114195322617e-13
vertex 63.46112054804074 70.47105144673286 7.219114195322617e-13
vertex 63.46112054804074 65.47105144673284 7.219114195322617e-13
endloop
endfacet
facet normal 0.0 0.0 -1.0
outer loop
vertex 63.46112054804074 51.471051446732865 7.219114195322617e-13
vertex 63.46112054804074 65.47105144673284 7.219114195322617e-13
vertex 63.46112054804074 62.49933954175201 7.219114195322617e-13
endloop
endfacet
facet normal 0.0 0.0 -1.0
outer loop
vertex 77.96112054804074 109.47105144673286 7.219114195322617e-13
vertex 81.96112054804074 106.47105144673284 7.219114195322617e-13
vertex 77.96112054804074 51.471051446732865 7.219114195322617e-13
endloop
endfacet
facet normal 0.0 0.0 -1.0
outer loop
vertex 81.96112054804074 106.47105144673284 7.219114195322617e-13
vertex 77.96112054804074 109.47105144673286 7.219114195322617e-13
vertex 89.96112054804074 112.47105144673283 7.219114195322617e-13
endloop
endfacet
facet normal 0.0 0.0 -1.0
outer loop
vertex 81.96112054804074 106.47105144673284 7.219114195322617e-13
vertex 89.96112054804074 112.47105144673283 7.219114195322617e-13
vertex 89.96112054804074 108.47105144673284 7.219114195322617e-13
endloop
endfacet
facet normal 0.0 0.0 -1.0
outer loop
vertex 77.96112054804074 51.471051446732865 7.219114195322617e-13
vertex 81.96112054804074 54.47105144673287 7.219114195322617e-13
vertex 89.96112054804074 48.47105144673286 7.219114195322617e-13
endloop
endfacet
facet normal 0.0 0.0 -1.0
outer loop
vertex 81.96112054804074 54.47105144673287 7.219114195322617e-13
vertex 77.96112054804074 51.471051446732865 7.219114195322617e-13
vertex 81.96112054804074 106.47105144673284 7.219114195322617e-13
endloop
endfacet
facet normal 0.0 0.0 -1.0
outer loop
vertex 89.96112054804074 48.47105144673286 7.219114195322617e-13
vertex 81.96112054804074 54.47105144673287 7.219114195322617e-13
vertex 89.96112054804074 52.471051446732865 7.219114195322617e-13
endloop
endfacet
facet normal 1.0 0.0 0.0
outer loop
vertex 77.96112054804074 114.47105144673287 7.219114195322617e-13
vertex 77.96112054804074 109.47105144673286 3.000000000000722
vertex 77.96112054804074 109.47105144673286 7.219114195322617e-13
endloop
endfacet
facet normal 1.0 0.0 0.0
outer loop
vertex 77.96112054804074 51.471051446732865 7.219114195322617e-13
vertex 77.96112054804074 46.471051446732865 5.000000000000722
vertex 77.96112054804074 46.471051446732865 7.219114195322617e-13
endloop
endfacet
facet normal 1.0 0.0 0.0
outer loop
vertex 77.96112054804074 46.471051446732865 5.000000000000722
vertex 77.96112054804074 51.471051446732865 7.219114195322617e-13
vertex 77.96112054804074 51.471051446732865 3.000000000000722
endloop
endfacet
facet normal 1.0 0.0 0.0
outer loop
vertex 77.96112054804074 46.471051446732865 5.000000000000722
vertex 77.96112054804074 51.471051446732865 3.000000000000722
vertex 77.96112054804074 114.47105144673287 5.000000000000722
endloop
endfacet
facet normal 1.0 0.0 0.0
outer loop
vertex 77.96112054804074 114.47105144673287 5.000000000000722
vertex 77.96112054804074 51.471051446732865 3.000000000000722
vertex 77.96112054804074 109.47105144673286 3.000000000000722
endloop
endfacet
facet normal 1.0 0.0 0.0
outer loop
vertex 77.96112054804074 114.47105144673287 5.000000000000722
vertex 77.96112054804074 109.47105144673286 3.000000000000722
vertex 77.96112054804074 114.47105144673287 7.219114195322617e-13
endloop
endfacet
facet normal -0.0 -1.0 -0.0
outer loop
vertex 77.96112054804074 46.471051446732865 5.000000000000722
vertex 72.46112054804075 46.471051446732865 7.219114195322617e-13
vertex 77.96112054804074 46.471051446732865 7.219114195322617e-13
endloop
endfacet
facet normal -0.0 -1.0 -0.0
outer loop
vertex 72.46112054804075 46.471051446732865 7.219114195322617e-13
vertex 77.96112054804074 46.471051446732865 5.000000000000722
vertex 72.46112054804075 46.471051446732865 5.000000000000722
endloop
endfacet
facet normal 0.0 0.0 1.0
outer loop
vertex 77.96112054804074 46.471051446732865 5.000000000000722
vertex 72.46112054804075 114.47105144673287 5.000000000000722
vertex 72.46112054804075 46.471051446732865 5.000000000000722
endloop
endfacet
facet normal 0.0 0.0 1.0
outer loop
vertex 72.46112054804075 114.47105144673287 5.000000000000722
vertex 77.96112054804074 46.471051446732865 5.000000000000722
vertex 77.96112054804074 114.47105144673287 5.000000000000722
endloop
endfacet
facet normal -1.0 0.0 0.0
outer loop
vertex 72.46112054804075 46.471051446732865 5.000000000000722
vertex 72.46112054804075 62.4013929072192 1.2000000000007196
vertex 72.46112054804075 46.471051446732865 7.219114195322617e-13
endloop
endfacet
facet normal -1.0 0.0 0.0
outer loop
vertex 72.46112054804075 62.4013929072192 1.2000000000007196
vertex 72.46112054804075 46.471051446732865 5.000000000000722
vertex 72.46112054804075 114.47105144673287 5.000000000000722
endloop
endfacet
facet normal -1.0 0.0 0.0
outer loop
vertex 72.46112054804075 62.4013929072192 1.2000000000007196
vertex 72.46112054804075 114.47105144673287 5.000000000000722
vertex 72.46112054804075 65.47105144673284 1.2000000000007196
endloop
endfacet
facet normal -1.0 0.0 0.0
outer loop
vertex 72.46112054804075 65.47105144673284 1.2000000000007196
vertex 72.46112054804075 114.47105144673287 5.000000000000722
vertex 72.46112054804075 70.47105144673286 1.2000000000007254
endloop
endfacet
facet normal -1.0 0.0 0.0
outer loop
vertex 72.46112054804075 65.47105144673284 1.2000000000007196
vertex 72.46112054804075 70.47105144673286 1.2000000000007254
vertex 72.46112054804075 65.47105144673284 7.219114195322617e-13
endloop
endfacet
facet normal -1.0 0.0 0.0
outer loop
vertex 72.46112054804075 70.47105144673286 1.2000000000007254
vertex 72.46112054804075 114.47105144673287 5.000000000000722
vertex 72.46112054804075 73.43276589103567 1.2000000000007254
endloop
endfacet
facet normal -1.0 0.0 0.0
outer loop
vertex 72.46112054804075 73.43276589103567 1.2000000000007254
vertex 72.46112054804075 114.47105144673287 5.000000000000722
vertex 72.46112054804075 73.43276589103567 7.219114195322617e-13
endloop
endfacet
facet normal -1.0 0.0 0.0
outer loop
vertex 72.46112054804075 73.43276589103567 7.219114195322617e-13
vertex 72.46112054804075 114.47105144673287 5.000000000000722
vertex 72.46112054804075 87.46573413437655 1.2000000000007254
endloop
endfacet
facet normal -1.0 0.0 0.0
outer loop
vertex 72.46112054804075 87.46573413437655 1.2000000000007254
vertex 72.46112054804075 114.47105144673287 5.000000000000722
vertex 72.46112054804075 90.47105144673286 1.2000000000007254
endloop
endfacet
facet normal -1.0 0.0 0.0
outer loop
vertex 72.46112054804075 90.47105144673286 1.2000000000007254
vertex 72.46112054804075 114.47105144673287 5.000000000000722
vertex 72.46112054804075 95.47105144673286 1.2000000000007254
endloop
endfacet
facet normal -1.0 0.0 0.0
outer loop
vertex 72.46112054804075 90.47105144673286 1.2000000000007254
vertex 72.46112054804075 95.47105144673286 1.2000000000007254
vertex 72.46112054804075 90.47105144673286 7.219114195322617e-13
endloop
endfacet
facet normal -1.0 0.0 0.0
outer loop
vertex 72.46112054804075 95.47105144673286 1.2000000000007254
vertex 72.46112054804075 114.47105144673287 5.000000000000722
vertex 72.46112054804075 98.45038997883444 1.2000000000007254
endloop
endfacet
facet normal -1.0 0.0 0.0
outer loop
vertex 72.46112054804075 98.45038997883444 1.2000000000007254
vertex 72.46112054804075 114.47105144673287 5.000000000000722
vertex 72.46112054804075 98.45038997883444 7.219114195322617e-13
endloop
endfacet
facet normal -1.0 0.0 0.0
outer loop
vertex 72.46112054804075 98.45038997883444 7.219114195322617e-13
vertex 72.46112054804075 114.47105144673287 5.000000000000722
vertex 72.46112054804075 114.47105144673287 7.219114195322617e-13
endloop
endfacet
facet normal -1.0 0.0 0.0
outer loop
vertex 72.46112054804075 95.47105144673286 7.219114195322617e-13
vertex 72.46112054804075 90.47105144673286 7.219114195322617e-13
vertex 72.46112054804075 95.47105144673286 1.2000000000007254
endloop
endfacet
facet normal -1.0 0.0 0.0
outer loop
vertex 72.46112054804075 87.46573413437655 7.219114195322617e-13
vertex 72.46112054804075 73.43276589103567 7.219114195322617e-13
vertex 72.46112054804075 87.46573413437655 1.2000000000007254
endloop
endfacet
facet normal -1.0 0.0 0.0
outer loop
vertex 72.46112054804075 70.47105144673286 7.219114195322617e-13
vertex 72.46112054804075 65.47105144673284 7.219114195322617e-13
vertex 72.46112054804075 70.47105144673286 1.2000000000007254
endloop
endfacet
facet normal -1.0 0.0 0.0
outer loop
vertex 72.46112054804075 62.4013929072192 7.219114195322617e-13
vertex 72.46112054804075 46.471051446732865 7.219114195322617e-13
vertex 72.46112054804075 62.4013929072192 1.2000000000007196
endloop
endfacet
facet normal 0.0 1.0 0.0
outer loop
vertex 69.06112054804075 73.43276589103567 1.2000000000007254
vertex 72.46112054804075 73.43276589103567 7.219114195322617e-13
vertex 69.06112054804075 73.43276589103567 7.219114195322617e-13
endloop
endfacet
facet normal 0.0 1.0 0.0
outer loop
vertex 72.46112054804075 73.43276589103567 7.219114195322617e-13
vertex 69.06112054804075 73.43276589103567 1.2000000000007254
vertex 72.46112054804075 73.43276589103567 1.2000000000007254
endloop
endfacet
facet normal 1.0 0.0 0.0
outer loop
vertex 89.96112054804074 52.471051446732865 7.219114195322617e-13
vertex 89.96112054804074 48.47105144673286 3.0000000000007163
vertex 89.96112054804074 48.47105144673286 7.219114195322617e-13
endloop
endfacet
facet normal 1.0 0.0 0.0
outer loop
vertex 89.96112054804074 48.47105144673286 3.0000000000007163
vertex 89.96112054804074 52.471051446732865 7.219114195322617e-13
vertex 89.96112054804074 52.471051446732865 3.0000000000007163
endloop
endfacet
facet normal -0.24253562503633308 -0.9701425001453319 -4.800603840274677e-31
outer loop
vertex 89.96112054804074 48.47105144673286 3.0000000000007163
vertex 77.96112054804074 51.471051446732865 7.219114195322617e-13
vertex 89.96112054804074 48.47105144673286 7.219114195322617e-13
endloop
endfacet
facet normal -0.24253562503633308 -0.9701425001453319 -4.800603840274677e-31
outer loop
vertex 77.96112054804074 51.471051446732865 7.219114195322617e-13
vertex 89.96112054804074 48.47105144673286 3.0000000000007163
vertex 77.96112054804074 51.471051446732865 3.000000000000722
endloop
endfacet
facet normal 0.0 1.0 0.0
outer loop
vertex 65.56112054804073 109.47105144673286 2.500000000000722
vertex 69.06112054804075 109.47105144673286 7.219114195322617e-13
vertex 65.56112054804073 109.47105144673286 7.219114195322617e-13
endloop
endfacet
facet normal 0.0 1.0 0.0
outer loop
vertex 69.06112054804075 109.47105144673286 7.219114195322617e-13
vertex 65.56112054804073 109.47105144673286 2.500000000000722
vertex 69.06112054804075 109.47105144673286 2.500000000000722
endloop
endfacet
facet normal 0.0 1.0 0.0
outer loop
vertex 69.06112054804075 65.47105144673284 1.2000000000007196
vertex 72.46112054804075 65.47105144673284 7.219114195322617e-13
vertex 69.06112054804075 65.47105144673284 7.219114195322617e-13
endloop
endfacet
facet normal 0.0 1.0 0.0
outer loop
vertex 72.46112054804075 65.47105144673284 7.219114195322617e-13
vertex 69.06112054804075 65.47105144673284 1.2000000000007196
vertex 72.46112054804075 65.47105144673284 1.2000000000007196
endloop
endfacet
facet normal 0.0 0.0 1.0
outer loop
vertex 69.06112054804075 51.471051446732865 2.500000000000722
vertex 65.56112054804073 109.47105144673286 2.500000000000722
vertex 65.56112054804073 51.471051446732865 2.500000000000722
endloop
endfacet
facet normal 0.0 0.0 1.0
outer loop
vertex 65.56112054804073 109.47105144673286 2.500000000000722
vertex 69.06112054804075 51.471051446732865 2.500000000000722
vertex 69.06112054804075 109.47105144673286 2.500000000000722
endloop
endfacet
facet normal -1.0 0.0 0.0
outer loop
vertex 65.56112054804073 51.471051446732865 2.500000000000722
vertex 65.56112054804073 62.49933954175201 1.200000000000722
vertex 65.56112054804073 51.471051446732865 7.219114195322617e-13
endloop
endfacet
facet normal -1.0 0.0 0.0
outer loop
vertex 65.56112054804073 62.49933954175201 1.200000000000722
vertex 65.56112054804073 51.471051446732865 2.500000000000722
vertex 65.56112054804073 109.47105144673286 2.500000000000722
endloop
endfacet
facet normal -1.0 0.0 0.0
outer loop
vertex 65.56112054804073 62.49933954175201 1.200000000000722
vertex 65.56112054804073 109.47105144673286 2.500000000000722
vertex 65.56112054804073 65.47105144673284 1.200000000000722
endloop
endfacet
facet normal -1.0 0.0 0.0
outer loop
vertex 65.56112054804073 65.47105144673284 1.200000000000722
vertex 65.56112054804073 109.47105144673286 2.500000000000722
vertex 65.56112054804073 70.47105144673286 1.2000000000007234
endloop
endfacet
facet normal -1.0 0.0 0.0
outer loop
vertex 65.56112054804073 65.47105144673284 1.200000000000722
vertex 65.56112054804073 70.47105144673286 1.2000000000007234
vertex 65.56112054804073 65.47105144673284 7.219114195322617e-13
endloop
endfacet
facet normal -1.0 0.0 0.0
outer loop
vertex 65.56112054804073 70.47105144673286 1.2000000000007234
vertex 65.56112054804073 109.47105144673286 2.500000000000722
vertex 65.56112054804073 73.5002888660115 1.2000000000007234
endloop
endfacet
facet normal -1.0 0.0 0.0
outer loop
vertex 65.56112054804073 73.5002888660115 1.2000000000007234
vertex 65.56112054804073 109.47105144673286 2.500000000000722
vertex 65.56112054804073 87.39610404967769 1.2000000000007254
endloop
endfacet
facet normal -1.0 0.0 0.0
outer loop
vertex 65.56112054804073 73.5002888660115 1.2000000000007234
vertex 65.56112054804073 87.39610404967769 1.2000000000007254
vertex 65.56112054804073 73.5002888660115 7.219114195322617e-13
endloop
endfacet
facet normal -1.0 0.0 0.0
outer loop
vertex 65.56112054804073 87.39610404967769 1.2000000000007254
vertex 65.56112054804073 109.47105144673286 2.500000000000722
vertex 65.56112054804073 90.47105144673286 1.2000000000007254
endloop
endfacet
facet normal -1.0 0.0 0.0
outer loop
vertex 65.56112054804073 90.47105144673286 1.2000000000007254
vertex 65.56112054804073 109.47105144673286 2.500000000000722
vertex 65.56112054804073 95.47105144673286 1.2000000000007196
endloop
endfacet
facet normal -1.0 0.0 0.0
outer loop
vertex 65.56112054804073 90.47105144673286 1.2000000000007254
vertex 65.56112054804073 95.47105144673286 1.2000000000007196
vertex 65.56112054804073 90.47105144673286 7.219114195322617e-13
endloop
endfacet
facet normal -1.0 0.0 0.0
outer loop
vertex 65.56112054804073 95.47105144673286 1.2000000000007196
vertex 65.56112054804073 109.47105144673286 2.500000000000722
vertex 65.56112054804073 98.50602490392589 1.2000000000007196
endloop
endfacet
facet normal -1.0 0.0 0.0
outer loop
vertex 65.56112054804073 98.50602490392589 1.2000000000007196
vertex 65.56112054804073 109.47105144673286 2.500000000000722
vertex 65.56112054804073 98.50602490392589 7.219114195322617e-13
endloop
endfacet
facet normal -1.0 0.0 0.0
outer loop
vertex 65.56112054804073 98.50602490392589 7.219114195322617e-13
vertex 65.56112054804073 109.47105144673286 2.500000000000722
vertex 65.56112054804073 109.47105144673286 7.219114195322617e-13
endloop
endfacet
facet normal -1.0 0.0 0.0
outer loop
vertex 65.56112054804073 95.47105144673286 7.219114195322617e-13
vertex 65.56112054804073 90.47105144673286 7.219114195322617e-13
vertex 65.56112054804073 95.47105144673286 1.2000000000007196
endloop
endfacet
facet normal -1.0 0.0 0.0
outer loop
vertex 65.56112054804073 87.39610404967769 7.219114195322617e-13
vertex 65.56112054804073 73.5002888660115 7.219114195322617e-13
vertex 65.56112054804073 87.39610404967769 1.2000000000007254
endloop
endfacet
facet normal -1.0 0.0 0.0
outer loop
vertex 65.56112054804073 70.47105144673286 7.219114195322617e-13
vertex 65.56112054804073 65.47105144673284 7.219114195322617e-13
vertex 65.56112054804073 70.47105144673286 1.2000000000007234
endloop
endfacet
facet normal -1.0 0.0 0.0
outer loop
vertex 65.56112054804073 62.49933954175201 7.219114195322617e-13
vertex 65.56112054804073 51.471051446732865 7.219114195322617e-13
vertex 65.56112054804073 62.49933954175201 1.200000000000722
endloop
endfacet
facet normal 1.0 0.0 0.0
outer loop
vertex 69.06112054804075 70.47105144673286 7.219114195322617e-13
vertex 69.06112054804075 65.47105144673284 1.2000000000007196
vertex 69.06112054804075 65.47105144673284 7.219114195322617e-13
endloop
endfacet
facet normal 1.0 0.0 0.0
outer loop
vertex 69.06112054804075 87.46573413437655 7.219114195322617e-13
vertex 69.06112054804075 73.43276589103567 1.2000000000007254
vertex 69.06112054804075 73.43276589103567 7.219114195322617e-13
endloop
endfacet
facet normal 1.0 0.0 0.0
outer loop
vertex 69.06112054804075 95.47105144673286 7.219114195322617e-13
vertex 69.06112054804075 90.47105144673286 1.2000000000007254
vertex 69.06112054804075 90.47105144673286 7.219114195322617e-13
endloop
endfacet
facet normal 1.0 0.0 0.0
outer loop
vertex 69.06112054804075 109.47105144673286 7.219114195322617e-13
vertex 69.06112054804075 98.45038997883444 1.2000000000007254
vertex 69.06112054804075 98.45038997883444 7.219114195322617e-13
endloop
endfacet
facet normal 1.0 0.0 0.0
outer loop
vertex 69.06112054804075 62.4013929072192 7.219114195322617e-13
vertex 69.06112054804075 51.471051446732865 2.500000000000722
vertex 69.06112054804075 51.471051446732865 7.219114195322617e-13
endloop
endfacet
facet normal 1.0 0.0 0.0
outer loop
vertex 69.06112054804075 51.471051446732865 2.500000000000722
vertex 69.06112054804075 62.4013929072192 7.219114195322617e-13
vertex 69.06112054804075 62.4013929072192 1.2000000000007196
endloop
endfacet
facet normal 1.0 0.0 0.0
outer loop
vertex 69.06112054804075 51.471051446732865 2.500000000000722
vertex 69.06112054804075 62.4013929072192 1.2000000000007196
vertex 69.06112054804075 109.47105144673286 2.500000000000722
endloop
endfacet
facet normal 1.0 0.0 0.0
outer loop
vertex 69.06112054804075 109.47105144673286 2.500000000000722
vertex 69.06112054804075 62.4013929072192 1.2000000000007196
vertex 69.06112054804075 65.47105144673284 1.2000000000007196
endloop
endfacet
facet normal 1.0 0.0 0.0
outer loop
vertex 69.06112054804075 109.47105144673286 2.500000000000722
vertex 69.06112054804075 65.47105144673284 1.2000000000007196
vertex 69.06112054804075 70.47105144673286 1.2000000000007254
endloop
endfacet
facet normal 1.0 0.0 0.0
outer loop
vertex 69.06112054804075 70.47105144673286 1.2000000000007254
vertex 69.06112054804075 65.47105144673284 1.2000000000007196
vertex 69.06112054804075 70.47105144673286 7.219114195322617e-13
endloop
endfacet
facet normal 1.0 0.0 0.0
outer loop
vertex 69.06112054804075 109.47105144673286 2.500000000000722
vertex 69.06112054804075 70.47105144673286 1.2000000000007254
vertex 69.06112054804075 73.43276589103567 1.2000000000007254
endloop
endfacet
facet normal 1.0 0.0 0.0
outer loop
vertex 69.06112054804075 109.47105144673286 2.500000000000722
vertex 69.06112054804075 73.43276589103567 1.2000000000007254
vertex 69.06112054804075 87.46573413437655 1.2000000000007254
endloop
endfacet
facet normal 1.0 0.0 0.0
outer loop
vertex 69.06112054804075 87.46573413437655 1.2000000000007254
vertex 69.06112054804075 73.43276589103567 1.2000000000007254
vertex 69.06112054804075 87.46573413437655 7.219114195322617e-13
endloop
endfacet
facet normal 1.0 0.0 0.0
outer loop
vertex 69.06112054804075 109.47105144673286 2.500000000000722
vertex 69.06112054804075 87.46573413437655 1.2000000000007254
vertex 69.06112054804075 90.47105144673286 1.2000000000007254
endloop
endfacet
facet normal 1.0 0.0 0.0
outer loop
vertex 69.06112054804075 109.47105144673286 2.500000000000722
vertex 69.06112054804075 90.47105144673286 1.2000000000007254
vertex 69.06112054804075 95.47105144673286 1.2000000000007254
endloop
endfacet
facet normal 1.0 0.0 0.0
outer loop
vertex 69.06112054804075 95.47105144673286 1.2000000000007254
vertex 69.06112054804075 90.47105144673286 1.2000000000007254
vertex 69.06112054804075 95.47105144673286 7.219114195322617e-13
endloop
endfacet
facet normal 1.0 0.0 0.0
outer loop
vertex 69.06112054804075 109.47105144673286 2.500000000000722
vertex 69.06112054804075 95.47105144673286 1.2000000000007254
vertex 69.06112054804075 98.45038997883444 1.2000000000007254
endloop
endfacet
facet normal 1.0 0.0 0.0
outer loop
vertex 69.06112054804075 109.47105144673286 2.500000000000722
vertex 69.06112054804075 98.45038997883444 1.2000000000007254
vertex 69.06112054804075 109.47105144673286 7.219114195322617e-13
endloop
endfacet
facet normal 0.0 0.0 1.0
outer loop
vertex 72.46112054804075 62.4013929072192 1.2000000000007196
vertex 69.06112054804075 65.47105144673284 1.2000000000007196
vertex 69.06112054804075 62.4013929072192 1.2000000000007196
endloop
endfacet
facet normal 0.0 0.0 1.0
outer loop
vertex 69.06112054804075 65.47105144673284 1.2000000000007196
vertex 72.46112054804075 62.4013929072192 1.2000000000007196
vertex 72.46112054804075 65.47105144673284 1.2000000000007196
endloop
endfacet
facet normal 0.0 0.0 1.0
outer loop
vertex 65.56112054804073 95.47105144673286 1.2000000000007196
vertex 63.46112054804074 98.50602490392589 1.2000000000007196
vertex 63.46112054804074 95.47105144673286 1.2000000000007196
endloop
endfacet
facet normal 0.0 0.0 1.0
outer loop
vertex 63.46112054804074 98.50602490392589 1.2000000000007196
vertex 65.56112054804073 95.47105144673286 1.2000000000007196
vertex 65.56112054804073 98.50602490392589 1.2000000000007196
endloop
endfacet
facet normal 0.0 1.0 0.0
outer loop
vertex 63.46112054804074 98.50602490392589 1.2000000000007196
vertex 65.56112054804073 98.50602490392589 7.219114195322617e-13
vertex 63.46112054804074 98.50602490392589 7.219114195322617e-13
endloop
endfacet
facet normal 0.0 1.0 0.0
outer loop
vertex 65.56112054804073 98.50602490392589 7.219114195322617e-13
vertex 63.46112054804074 98.50602490392589 1.2000000000007196
vertex 65.56112054804073 98.50602490392589 1.2000000000007196
endloop
endfacet
facet normal -0.0 -1.0 -0.0
outer loop
vertex 72.46112054804075 70.47105144673286 1.2000000000007254
vertex 69.06112054804075 70.47105144673286 7.219114195322617e-13
vertex 72.46112054804075 70.47105144673286 7.219114195322617e-13
endloop
endfacet
facet normal -0.0 -1.0 -0.0
outer loop
vertex 69.06112054804075 70.47105144673286 7.219114195322617e-13
vertex 72.46112054804075 70.47105144673286 1.2000000000007254
vertex 69.06112054804075 70.47105144673286 1.2000000000007254
endloop
endfacet
facet normal -0.0 -1.0 -0.0
outer loop
vertex 65.56112054804073 87.39610404967769 1.2000000000007254
vertex 63.46112054804074 87.39610404967769 7.219114195322617e-13
vertex 65.56112054804073 87.39610404967769 7.219114195322617e-13
endloop
endfacet
facet normal -0.0 -1.0 -0.0
outer loop
vertex 63.46112054804074 87.39610404967769 7.219114195322617e-13
vertex 65.56112054804073 87.39610404967769 1.2000000000007254
vertex 63.46112054804074 87.39610404967769 1.2000000000007254
endloop
endfacet
facet normal 0.0 1.0 0.0
outer loop
vertex 63.46112054804074 90.47105144673286 1.2000000000007254
vertex 65.56112054804073 90.47105144673286 7.219114195322617e-13
vertex 63.46112054804074 90.47105144673286 7.219114195322617e-13
endloop
endfacet
facet normal 0.0 1.0 0.0
outer loop
vertex 65.56112054804073 90.47105144673286 7.219114195322617e-13
vertex 63.46112054804074 90.47105144673286 1.2000000000007254
vertex 65.56112054804073 90.47105144673286 1.2000000000007254
endloop
endfacet
facet normal 0.0 0.0 1.0
outer loop
vertex 65.56112054804073 87.39610404967769 1.2000000000007254
vertex 63.46112054804074 90.47105144673286 1.2000000000007254
vertex 63.46112054804074 87.39610404967769 1.2000000000007254
endloop
endfacet
facet normal 0.0 0.0 1.0
outer loop
vertex 63.46112054804074 90.47105144673286 1.2000000000007254
vertex 65.56112054804073 87.39610404967769 1.2000000000007254
vertex 65.56112054804073 90.47105144673286 1.2000000000007254
endloop
endfacet
facet normal 0.0 0.0 1.0
outer loop
vertex 72.46112054804075 70.47105144673286 1.2000000000007254
vertex 69.06112054804075 73.43276589103567 1.2000000000007254
vertex 69.06112054804075 70.47105144673286 1.2000000000007254
endloop
endfacet
facet normal 0.0 0.0 1.0
outer loop
vertex 69.06112054804075 73.43276589103567 1.2000000000007254
vertex 72.46112054804075 70.47105144673286 1.2000000000007254
vertex 72.46112054804075 73.43276589103567 1.2000000000007254
endloop
endfacet
facet normal 0.24253562503633389 0.9701425001453317 0.0
outer loop
vertex 81.96112054804074 54.47105144673287 3.0000000000007163
vertex 89.96112054804074 52.471051446732865 7.219114195322617e-13
vertex 81.96112054804074 54.47105144673287 7.219114195322617e-13
endloop
endfacet
facet normal 0.24253562503633389 0.9701425001453317 0.0
outer loop
vertex 89.96112054804074 52.471051446732865 7.219114195322617e-13
vertex 81.96112054804074 54.47105144673287 3.0000000000007163
vertex 89.96112054804074 52.471051446732865 3.0000000000007163
endloop
endfacet
facet normal -0.0 -1.0 -0.0
outer loop
vertex 65.56112054804073 70.47105144673286 1.2000000000007234
vertex 63.46112054804074 70.47105144673286 7.219114195322617e-13
vertex 65.56112054804073 70.47105144673286 7.219114195322617e-13
endloop
endfacet
facet normal -0.0 -1.0 -0.0
outer loop
vertex 63.46112054804074 70.47105144673286 7.219114195322617e-13
vertex 65.56112054804073 70.47105144673286 1.2000000000007234
vertex 63.46112054804074 70.47105144673286 1.2000000000007234
endloop
endfacet
facet normal -0.0 -1.0 -0.0
outer loop
vertex 65.56112054804073 62.49933954175201 1.200000000000722
vertex 63.46112054804074 62.49933954175201 7.219114195322617e-13
vertex 65.56112054804073 62.49933954175201 7.219114195322617e-13
endloop
endfacet
facet normal -0.0 -1.0 -0.0
outer loop
vertex 63.46112054804074 62.49933954175201 7.219114195322617e-13
vertex 65.56112054804073 62.49933954175201 1.200000000000722
vertex 63.46112054804074 62.49933954175201 1.200000000000722
endloop
endfacet
facet normal -0.0 -1.0 -0.0
outer loop
vertex 72.46112054804075 87.46573413437655 1.2000000000007254
vertex 69.06112054804075 87.46573413437655 7.219114195322617e-13
vertex 72.46112054804075 87.46573413437655 7.219114195322617e-13
endloop
endfacet
facet normal -0.0 -1.0 -0.0
outer loop
vertex 69.06112054804075 87.46573413437655 7.219114195322617e-13
vertex 72.46112054804075 87.46573413437655 1.2000000000007254
vertex 69.06112054804075 87.46573413437655 1.2000000000007254
endloop
endfacet
facet normal 0.0 1.0 0.0
outer loop
vertex 63.46112054804074 73.5002888660115 1.2000000000007234
vertex 65.56112054804073 73.5002888660115 7.219114195322617e-13
vertex 63.46112054804074 73.5002888660115 7.219114195322617e-13
endloop
endfacet
facet normal 0.0 1.0 0.0
outer loop
vertex 65.56112054804073 73.5002888660115 7.219114195322617e-13
vertex 63.46112054804074 73.5002888660115 1.2000000000007234
vertex 65.56112054804073 73.5002888660115 1.2000000000007234
endloop
endfacet
facet normal 0.0 1.0 0.0
outer loop
vertex 69.06112054804075 98.45038997883444 1.2000000000007254
vertex 72.46112054804075 98.45038997883444 7.219114195322617e-13
vertex 69.06112054804075 98.45038997883444 7.219114195322617e-13
endloop
endfacet
facet normal 0.0 1.0 0.0
outer loop
vertex 72.46112054804075 98.45038997883444 7.219114195322617e-13
vertex 69.06112054804075 98.45038997883444 1.2000000000007254
vertex 72.46112054804075 98.45038997883444 1.2000000000007254
endloop
endfacet
facet normal 0.0 1.0 0.0
outer loop
vertex 63.46112054804074 65.47105144673284 1.200000000000722
vertex 65.56112054804073 65.47105144673284 7.219114195322617e-13
vertex 63.46112054804074 65.47105144673284 7.219114195322617e-13
endloop
endfacet
facet normal 0.0 1.0 0.0
outer loop
vertex 65.56112054804073 65.47105144673284 7.219114195322617e-13
vertex 63.46112054804074 65.47105144673284 1.200000000000722
vertex 65.56112054804073 65.47105144673284 1.200000000000722
endloop
endfacet
facet normal 0.0 0.0 1.0
outer loop
vertex 65.56112054804073 70.47105144673286 1.2000000000007234
vertex 63.46112054804074 73.5002888660115 1.2000000000007234
vertex 63.46112054804074 70.47105144673286 1.2000000000007234
endloop
endfacet
facet normal 0.0 0.0 1.0
outer loop
vertex 63.46112054804074 73.5002888660115 1.2000000000007234
vertex 65.56112054804073 70.47105144673286 1.2000000000007234
vertex 65.56112054804073 73.5002888660115 1.2000000000007234
endloop
endfacet
facet normal -0.0 -1.0 -0.0
outer loop
vertex 72.46112054804075 95.47105144673286 1.2000000000007254
vertex 69.06112054804075 95.47105144673286 7.219114195322617e-13
vertex 72.46112054804075 95.47105144673286 7.219114195322617e-13
endloop
endfacet
facet normal -0.0 -1.0 -0.0
outer loop
vertex 69.06112054804075 95.47105144673286 7.219114195322617e-13
vertex 72.46112054804075 95.47105144673286 1.2000000000007254
vertex 69.06112054804075 95.47105144673286 1.2000000000007254
endloop
endfacet
facet normal 0.0 0.0 1.0
outer loop
vertex 72.46112054804075 95.47105144673286 1.2000000000007254
vertex 69.06112054804075 98.45038997883444 1.2000000000007254
vertex 69.06112054804075 95.47105144673286 1.2000000000007254
endloop
endfacet
facet normal 0.0 0.0 1.0
outer loop
vertex 69.06112054804075 98.45038997883444 1.2000000000007254
vertex 72.46112054804075 95.47105144673286 1.2000000000007254
vertex 72.46112054804075 98.45038997883444 1.2000000000007254
endloop
endfacet
facet normal 0.0 0.0 1.0
outer loop
vertex 72.46112054804075 87.46573413437655 1.2000000000007254
vertex 69.06112054804075 90.47105144673286 1.2000000000007254
vertex 69.06112054804075 87.46573413437655 1.2000000000007254
endloop
endfacet
facet normal 0.0 0.0 1.0
outer loop
vertex 69.06112054804075 90.47105144673286 1.2000000000007254
vertex 72.46112054804075 87.46573413437655 1.2000000000007254
vertex 72.46112054804075 90.47105144673286 1.2000000000007254
endloop
endfacet
facet normal 0.0 1.0 0.0
outer loop
vertex 69.06112054804075 90.47105144673286 1.2000000000007254
vertex 72.46112054804075 90.47105144673286 7.219114195322617e-13
vertex 69.06112054804075 90.47105144673286 7.219114195322617e-13
endloop
endfacet
facet normal 0.0 1.0 0.0
outer loop
vertex 72.46112054804075 90.47105144673286 7.219114195322617e-13
vertex 69.06112054804075 90.47105144673286 1.2000000000007254
vertex 72.46112054804075 90.47105144673286 1.2000000000007254
endloop
endfacet
endsolid 카드
