solid 카드
facet normal 1.0 0.0 1.3192825649346883e-16
outer loop
vertex 30.0 33.49999999999999 0.0
vertex 30.000000000000007 32.19999999999999 3.0
vertex 30.000000000000007 32.19999999999999 0.0
endloop
endfacet
facet normal 1.0 0.0 1.3192825649346883e-16
outer loop
vertex 30.000000000000007 27.8 0.0
vertex 30.0 26.499999999999996 3.5
vertex 30.0 26.499999999999996 0.0
endloop
endfacet
facet normal 1.0 0.0 1.3192825649346883e-16
outer loop
vertex 30.0 26.499999999999996 3.5
vertex 30.000000000000007 27.8 0.0
vertex 30.000000000000007 27.8 3.0
endloop
endfacet
facet normal 1.0 0.0 1.3192825649346883e-16
outer loop
vertex 30.0 26.499999999999996 3.5
vertex 30.000000000000007 27.8 3.0
vertex 30.0 33.49999999999999 3.5
endloop
endfacet
facet normal 1.0 0.0 1.3192825649346883e-16
outer loop
vertex 30.0 33.49999999999999 3.5
vertex 30.000000000000007 27.8 3.0
vertex 30.000000000000007 32.19999999999999 3.0
endloop
endfacet
facet normal 1.0 0.0 1.3192825649346883e-16
outer loop
vertex 30.0 33.49999999999999 3.5
vertex 30.000000000000007 32.19999999999999 3.0
vertex 30.0 33.49999999999999 0.0
endloop
endfacet
facet normal 0.0 0.0 1.0
outer loop
vertex 10.500000000000012 25.999999999999996 2.5
vertex 6.0 30.999999999999993 2.5
vertex 6.0 28.999999999999996 2.5
endloop
endfacet
facet normal 0.0 0.0 1.0
outer loop
vertex 6.0 30.999999999999993 2.5
vertex 10.500000000000012 25.999999999999996 2.5
vertex 10.500000000000012 34.0 2.5
endloop
endfacet
facet normal 0.0 0.0 1.0
outer loop
vertex 10.500000000000012 34.0 2.5
vertex 10.500000000000012 25.999999999999996 2.5
vertex 11.50000000000001 25.999999999999996 2.5
endloop
endfacet
facet normal 0.0 0.0 1.0
outer loop
vertex 10.500000000000012 34.0 2.5
vertex 11.50000000000001 25.999999999999996 2.5
vertex 11.50000000000001 34.0 2.5
endloop
endfacet
facet normal 1.0 0.0 0.0
outer loop
vertex 33.50000000000001 32.19999999999999 0.0
vertex 33.50000000000001 31.499999999999993 2.5000000000000004
vertex 33.50000000000001 31.499999999999993 0.0
endloop
endfacet
facet normal 1.0 0.0 0.0
outer loop
vertex 33.50000000000001 28.5 0.0
vertex 33.50000000000001 27.8 3.0
vertex 33.50000000000001 27.8 0.0
endloop
endfacet
facet normal 1.0 0.0 0.0
outer loop
vertex 33.50000000000001 27.8 3.0
vertex 33.50000000000001 28.5 0.0
vertex 33.50000000000001 28.5 2.5000000000000004
endloop
endfacet
facet normal 1.0 0.0 0.0
outer loop
vertex 33.50000000000001 27.8 3.0
vertex 33.50000000000001 28.5 2.5000000000000004
vertex 33.50000000000001 32.19999999999999 3.0
endloop
endfacet
facet normal 1.0 0.0 0.0
outer loop
vertex 33.50000000000001 32.19999999999999 3.0
vertex 33.50000000000001 28.5 2.5000000000000004
vertex 33.50000000000001 31.499999999999993 2.5000000000000004
endloop
endfacet
facet normal 1.0 0.0 0.0
outer loop
vertex 33.50000000000001 32.19999999999999 3.0
vertex 33.50000000000001 31.499999999999993 2.5000000000000004
vertex 33.50000000000001 32.19999999999999 0.0
endloop
endfacet
facet normal 0.0 0.0 -1.0
outer loop
vertex 90.0 37.5 0.0
vertex 87.50000000000001 35.99999999999999 0.0
vertex 87.50000000000001 37.5 0.0
endloop
endfacet
facet normal 0.0 0.0 -1.0
outer loop
vertex 87.50000000000001 35.99999999999999 0.0
vertex 90.0 37.5 0.0
vertex 87.50000000000001 23.999999999999996 0.0
endloop
endfacet
facet normal 0.0 0.0 -1.0
outer loop
vertex 87.50000000000001 23.999999999999996 0.0
vertex 90.0 37.5 0.0
vertex 87.50000000000001 22.499999999999996 0.0
endloop
endfacet
facet normal 0.0 0.0 -1.0
outer loop
vertex 87.50000000000001 22.499999999999996 0.0
vertex 90.0 37.5 0.0
vertex 90.0 22.499999999999996 0.0
endloop
endfacet
facet normal 0.0 0.0 -1.0
outer loop
vertex 87.50000000000001 35.99999999999999 0.0
vertex 80.0 32.99999999999999 0.0
vertex 80.0 34.49999999999999 0.0
endloop
endfacet
facet normal 0.0 0.0 -1.0
outer loop
vertex 80.0 32.99999999999999 0.0
vertex 87.50000000000001 35.99999999999999 0.0
vertex 80.0 26.999999999999996 0.0
endloop
endfacet
facet normal 0.0 0.0 -1.0
outer loop
vertex 80.0 26.999999999999996 0.0
vertex 87.50000000000001 35.99999999999999 0.0
vertex 80.0 25.5 0.0
endloop
endfacet
facet normal 0.0 0.0 -1.0
outer loop
vertex 80.0 25.5 0.0
vertex 87.50000000000001 35.99999999999999 0.0
vertex 87.50000000000001 23.999999999999996 0.0
endloop
endfacet
facet normal 0.0 0.0 -1.0
outer loop
vertex 80.0 32.99999999999999 0.0
vertex 33.50000000000001 28.5 0.0
vertex 33.50000000000001 31.499999999999993 0.0
endloop
endfacet
facet normal 0.0 0.0 -1.0
outer loop
vertex 33.50000000000001 28.5 0.0
vertex 80.0 32.99999999999999 0.0
vertex 80.0 26.999999999999996 0.0
endloop
endfacet
facet normal 0.0 0.0 -1.0
outer loop
vertex 30.0 33.49999999999999 0.0
vertex 27.500000000000007 26.499999999999996 0.0
vertex 27.500000000000007 33.49999999999999 0.0
endloop
endfacet
facet normal 0.0 0.0 -1.0
outer loop
vertex 27.500000000000007 26.499999999999996 0.0
vertex 30.0 33.49999999999999 0.0
vertex 30.0 26.499999999999996 0.0
endloop
endfacet
facet normal 0.0 0.0 -1.0
outer loop
vertex 30.0 26.499999999999996 0.0
vertex 30.0 33.49999999999999 0.0
vertex 30.000000000000007 32.19999999999999 0.0
endloop
endfacet
facet normal 0.0 0.0 -1.0
outer loop
vertex 30.0 26.499999999999996 0.0
vertex 30.000000000000007 32.19999999999999 0.0
vertex 30.000000000000007 27.8 0.0
endloop
endfacet
facet normal 0.0 0.0 -1.0
outer loop
vertex 30.000000000000007 27.8 0.0
vertex 30.000000000000007 32.19999999999999 0.0
vertex 33.50000000000001 32.19999999999999 0.0
endloop
endfacet
facet normal 0.0 0.0 -1.0
outer loop
vertex 30.000000000000007 27.8 0.0
vertex 33.50000000000001 32.19999999999999 0.0
vertex 33.50000000000001 27.8 0.0
endloop
endfacet
facet normal 0.0 0.0 -1.0
outer loop
vertex 33.50000000000001 27.8 0.0
vertex 33.50000000000001 32.19999999999999 0.0
vertex 33.50000000000001 31.499999999999993 0.0
endloop
endfacet
facet normal 0.0 0.0 -1.0
outer loop
vertex 33.50000000000001 27.8 0.0
vertex 33.50000000000001 31.499999999999993 0.0
vertex 33.50000000000001 28.5 0.0
endloop
endfacet
facet normal 0.0 0.0 -1.0
outer loop
vertex 27.500000000000007 37.0 0.0
vertex 26.000000000000007 35.99999999999999 0.0
vertex 26.000000000000007 37.0 0.0
endloop
endfacet
facet normal 0.0 0.0 -1.0
outer loop
vertex 26.000000000000007 35.99999999999999 0.0
vertex 27.500000000000007 37.0 0.0
vertex 26.000000000000007 35.0 0.0
endloop
endfacet
facet normal 0.0 0.0 -1.0
outer loop
vertex 26.000000000000007 35.0 0.0
vertex 27.500000000000007 37.0 0.0
vertex 26.000000000000007 24.999999999999996 0.0
endloop
endfacet
facet normal 0.0 0.0 -1.0
outer loop
vertex 26.000000000000007 24.999999999999996 0.0
vertex 27.500000000000007 37.0 0.0
vertex 26.000000000000007 23.999999999999996 0.0
endloop
endfacet
facet normal 0.0 0.0 -1.0
outer loop
vertex 26.000000000000007 23.999999999999996 0.0
vertex 27.500000000000007 37.0 0.0
vertex 26.000000000000007 22.999999999999993 0.0
endloop
endfacet
facet normal 0.0 0.0 -1.0
outer loop
vertex 26.000000000000007 22.999999999999993 0.0
vertex 27.500000000000007 37.0 0.0
vertex 27.500000000000007 22.999999999999993 0.0
endloop
endfacet
facet normal 0.0 0.0 -1.0
outer loop
vertex 27.500000000000007 22.999999999999993 0.0
vertex 27.500000000000007 37.0 0.0
vertex 27.500000000000007 33.49999999999999 0.0
endloop
endfacet
facet normal 0.0 0.0 -1.0
outer loop
vertex 27.500000000000007 22.999999999999993 0.0
vertex 27.500000000000007 33.49999999999999 0.0
vertex 27.500000000000007 26.499999999999996 0.0
endloop
endfacet
facet normal 0.0 0.0 -1.0
outer loop
vertex 26.000000000000007 24.999999999999996 0.0
vertex 16.00000000000001 23.499999999999996 0.0
vertex 16.00000000000001 24.499999999999996 0.0
endloop
endfacet
facet normal 0.0 0.0 -1.0
outer loop
vertex 16.00000000000001 23.499999999999996 0.0
vertex 26.000000000000007 24.999999999999996 0.0
vertex 26.000000000000007 23.999999999999996 0.0
endloop
endfacet
facet normal 0.0 0.0 -1.0
outer loop
vertex 26.000000000000007 35.99999999999999 0.0
vertex 16.00000000000001 35.5 0.0
vertex 16.00000000000001 36.49999999999999 0.0
endloop
endfacet
facet normal 0.0 0.0 -1.0
outer loop
vertex 16.00000000000001 35.5 0.0
vertex 26.000000000000007 35.99999999999999 0.0
vertex 26.000000000000007 35.0 0.0
endloop
endfacet
facet normal 0.0 0.0 -1.0
outer loop
vertex 14.00000000000001 37.5 0.0
vertex 11.50000000000001 34.0 0.0
vertex 11.50000000000001 35.0 0.0
endloop
endfacet
facet normal 0.0 0.0 -1.0
outer loop
vertex 11.50000000000001 34.0 0.0
vertex 14.00000000000001 37.5 0.0
vertex 11.50000000000001 25.999999999999996 0.0
endloop
endfacet
facet normal 0.0 0.0 -1.0
outer loop
vertex 11.50000000000001 25.999999999999996 0.0
vertex 14.00000000000001 37.5 0.0
vertex 11.50000000000001 24.999999999999996 0.0
endloop
endfacet
facet normal 0.0 0.0 -1.0
outer loop
vertex 11.50000000000001 24.999999999999996 0.0
vertex 14.00000000000001 37.5 0.0
vertex 14.00000000000001 22.5 0.0
endloop
endfacet
facet normal 0.0 0.0 -1.0
outer loop
vertex 14.00000000000001 22.5 0.0
vertex 14.00000000000001 37.5 0.0
vertex 16.00000000000001 37.5 0.0
endloop
endfacet
facet normal 0.0 0.0 -1.0
outer loop
vertex 14.00000000000001 22.5 0.0
vertex 16.00000000000001 37.5 0.0
vertex 16.00000000000001 22.5 0.0
endloop
endfacet
facet normal 0.0 0.0 -1.0
outer loop
vertex 16.00000000000001 22.5 0.0
vertex 16.00000000000001 37.5 0.0
vertex 16.00000000000001 36.49999999999999 0.0
endloop
endfacet
facet normal 0.0 0.0 -1.0
outer loop
vertex 16.00000000000001 22.5 0.0
vertex 16.00000000000001 36.49999999999999 0.0
vertex 16.00000000000001 35.5 0.0
endloop
endfacet
facet normal 0.0 0.0 -1.0
outer loop
vertex 16.00000000000001 22.5 0.0
vertex 16.00000000000001 35.5 0.0
vertex 16.00000000000001 24.499999999999996 0.0
endloop
endfacet
facet normal 0.0 0.0 -1.0
outer loop
vertex 16.00000000000001 22.5 0.0
vertex 16.00000000000001 24.499999999999996 0.0
vertex 16.00000000000001 23.499999999999996 0.0
endloop
endfacet
facet normal 0.0 0.0 -1.0
outer loop
vertex 10.500000000000012 34.0 0.0
vertex 6.0 30.499999999999996 0.0
vertex 6.0 30.999999999999993 0.0
endloop
endfacet
facet normal 0.0 0.0 -1.0
outer loop
vertex 6.0 30.499999999999996 0.0
vertex 10.500000000000012 34.0 0.0
vertex 6.0 29.499999999999996 0.0
endloop
endfacet
facet normal 0.0 0.0 -1.0
outer loop
vertex 6.0 29.499999999999996 0.0
vertex 10.500000000000012 34.0 0.0
vertex 6.0 28.999999999999996 0.0
endloop
endfacet
facet normal 0.0 0.0 -1.0
outer loop
vertex 6.0 28.999999999999996 0.0
vertex 10.500000000000012 34.0 0.0
vertex 10.500000000000012 25.999999999999996 0.0
endloop
endfacet
facet normal 0.0 0.0 -1.0
outer loop
vertex 10.500000000000012 25.999999999999996 0.0
vertex 10.500000000000012 34.0 0.0
vertex 11.50000000000001 34.0 0.0
endloop
endfacet
facet normal 0.0 0.0 -1.0
outer loop
vertex 10.500000000000012 25.999999999999996 0.0
vertex 11.50000000000001 34.0 0.0
vertex 11.50000000000001 25.999999999999996 0.0
endloop
endfacet
facet normal 0.0 0.0 -1.0
outer loop
vertex 6.0 30.499999999999996 0.0
vertex 5.0 29.499999999999996 0.0
vertex 5.0 30.499999999999996 0.0
endloop
endfacet
facet normal 0.0 0.0 -1.0
outer loop
vertex 5.0 29.499999999999996 0.0
vertex 6.0 30.499999999999996 0.0
vertex 6.0 29.499999999999996 0.0
endloop
endfacet
facet normal 0.0 0.0 1.0
outer loop
vertex 87.50000000000001 23.999999999999996 3.5
vertex 80.0 34.49999999999999 3.5
vertex 80.0 25.5 3.5
endloop
endfacet
facet normal 0.0 0.0 1.0
outer loop
vertex 80.0 34.49999999999999 3.5
vertex 87.50000000000001 23.999999999999996 3.5
vertex 87.50000000000001 35.99999999999999 3.5
endloop
endfacet
facet normal 0.0 1.0 0.0
outer loop
vertex 87.50000000000001 37.5 3.9999999999999996
vertex 90.0 37.5 0.0
vertex 87.50000000000001 37.5 0.0
endloop
endfacet
facet normal 0.0 1.0 0.0
outer loop
vertex 90.0 37.5 0.0
vertex 87.50000000000001 37.5 3.9999999999999996
vertex 90.0 37.5 3.9999999999999996
endloop
endfacet
facet normal -1.0 0.0 0.0
outer loop
vertex 11.50000000000001 24.999999999999996 3.0
vertex 11.50000000000001 25.999999999999996 2.5
vertex 11.50000000000001 24.999999999999996 0.0
endloop
endfacet
facet normal -1.0 0.0 0.0
outer loop
vertex 11.50000000000001 25.999999999999996 2.5
vertex 11.50000000000001 24.999999999999996 3.0
vertex 11.50000000000001 35.0 3.0
endloop
endfacet
facet normal -1.0 0.0 0.0
outer loop
vertex 11.50000000000001 25.999999999999996 2.5
vertex 11.50000000000001 35.0 3.0
vertex 11.50000000000001 34.0 2.5
endloop
endfacet
facet normal -1.0 0.0 0.0
outer loop
vertex 11.50000000000001 34.0 2.5
vertex 11.50000000000001 35.0 3.0
vertex 11.50000000000001 34.0 0.0
endloop
endfacet
facet normal -1.0 0.0 0.0
outer loop
vertex 11.50000000000001 34.0 0.0
vertex 11.50000000000001 35.0 3.0
vertex 11.50000000000001 35.0 0.0
endloop
endfacet
facet normal -1.0 0.0 0.0
outer loop
vertex 11.50000000000001 25.999999999999996 0.0
vertex 11.50000000000001 24.999999999999996 0.0
vertex 11.50000000000001 25.999999999999996 2.5
endloop
endfacet
facet normal 1.0 0.0 0.0
outer loop
vertex 90.0 37.5 0.0
vertex 90.0 22.499999999999996 3.9999999999999996
vertex 90.0 22.499999999999996 0.0
endloop
endfacet
facet normal 1.0 0.0 0.0
outer loop
vertex 90.0 22.499999999999996 3.9999999999999996
vertex 90.0 37.5 0.0
vertex 90.0 37.5 3.9999999999999996
endloop
endfacet
facet normal 0.0 0.0 1.0
outer loop
vertex 90.0 22.499999999999996 3.9999999999999996
vertex 87.50000000000001 37.5 3.9999999999999996
vertex 87.50000000000001 22.499999999999996 3.9999999999999996
endloop
endfacet
facet normal 0.0 0.0 1.0
outer loop
vertex 87.50000000000001 37.5 3.9999999999999996
vertex 90.0 22.499999999999996 3.9999999999999996
vertex 90.0 37.5 3.9999999999999996
endloop
endfacet
facet normal 0.049937616943892135 0.9987523388778446 0.0
outer loop
vertex 16.00000000000001 36.49999999999999 3.0
vertex 26.000000000000007 35.99999999999999 0.0
vertex 16.00000000000001 36.49999999999999 0.0
endloop
endfacet
facet normal 0.049937616943892135 0.9987523388778446 0.0
outer loop
vertex 26.000000000000007 35.99999999999999 0.0
vertex 16.00000000000001 36.49999999999999 3.0
vertex 26.000000000000007 35.99999999999999 3.0
endloop
endfacet
facet normal 1.0 0.0 0.0
outer loop
vertex 27.500000000000007 37.0 0.0
vertex 27.500000000000007 33.49999999999999 3.5
vertex 27.500000000000007 33.49999999999999 0.0
endloop
endfacet
facet normal 1.0 0.0 0.0
outer loop
vertex 27.500000000000007 26.499999999999996 0.0
vertex 27.500000000000007 22.999999999999993 3.9999999999999996
vertex 27.500000000000007 22.999999999999993 0.0
endloop
endfacet
facet normal 1.0 0.0 0.0
outer loop
vertex 27.500000000000007 22.999999999999993 3.9999999999999996
vertex 27.500000000000007 26.499999999999996 0.0
vertex 27.500000000000007 26.499999999999996 3.5
endloop
endfacet
facet normal 1.0 0.0 0.0
outer loop
vertex 27.500000000000007 22.999999999999993 3.9999999999999996
vertex 27.500000000000007 26.499999999999996 3.5
vertex 27.500000000000007 37.0 3.9999999999999996
endloop
endfacet
facet normal 1.0 0.0 0.0
outer loop
vertex 27.500000000000007 37.0 3.9999999999999996
vertex 27.500000000000007 26.499999999999996 3.5
vertex 27.500000000000007 33.49999999999999 3.5
endloop
endfacet
facet normal 1.0 0.0 0.0
outer loop
vertex 27.500000000000007 37.0 3.9999999999999996
vertex 27.500000000000007 33.49999999999999 3.5
vertex 27.500000000000007 37.0 0.0
endloop
endfacet
facet normal 0.0 -1.0 0.0
outer loop
vertex 30.0 26.499999999999996 3.5
vertex 27.500000000000007 26.499999999999996 0.0
vertex 30.0 26.499999999999996 0.0
endloop
endfacet
facet normal 0.0 -1.0 0.0
outer loop
vertex 27.500000000000007 26.499999999999996 0.0
vertex 30.0 26.499999999999996 3.5
vertex 27.500000000000007 26.499999999999996 3.5
endloop
endfacet
facet normal 0.0 0.0 1.0
outer loop
vertex 6.0 29.499999999999996 1.5999999999999999
vertex 5.0 30.499999999999996 1.5999999999999999
vertex 5.0 29.499999999999996 1.5999999999999999
endloop
endfacet
facet normal 0.0 0.0 1.0
outer loop
vertex 5.0 30.499999999999996 1.5999999999999999
vertex 6.0 29.499999999999996 1.5999999999999999
vertex 6.0 30.499999999999996 1.5999999999999999
endloop
endfacet
facet normal -0.03224129401095812 -0.9994801143396996 0.0
outer loop
vertex 80.0 26.999999999999996 2.5000000000000004
vertex 33.50000000000001 28.5 0.0
vertex 80.0 26.999999999999996 0.0
endloop
endfacet
facet normal -0.03224129401095812 -0.9994801143396996 0.0
outer loop
vertex 33.50000000000001 28.5 0.0
vertex 80.0 26.999999999999996 2.5000000000000004
vertex 33.50000000000001 28.5 2.5000000000000004
endloop
endfacet
facet normal -0.19611613513818413 -0.9805806756909201 0.0
outer loop
vertex 87.50000000000001 23.999999999999996 3.5
vertex 80.0 25.5 0.0
vertex 87.50000000000001 23.999999999999996 0.0
endloop
endfacet
facet normal -0.19611613513818413 -0.9805806756909201 0.0
outer loop
vertex 80.0 25.5 0.0
vertex 87.50000000000001 23.999999999999996 3.5
vertex 80.0 25.5 3.5
endloop
endfacet
facet normal 0.0 0.0 1.0
outer loop
vertex 80.0 26.999999999999996 2.5000000000000004
vertex 33.50000000000001 31.499999999999993 2.5000000000000004
vertex 33.50000000000001 28.5 2.5000000000000004
endloop
endfacet
facet normal 0.0 0.0 1.0
outer loop
vertex 33.50000000000001 31.499999999999993 2.5000000000000004
vertex 80.0 26.999999999999996 2.5000000000000004
vertex 80.0 32.99999999999999 2.5000000000000004
endloop
endfacet
facet normal -1.0 0.0 0.0
outer loop
vertex 5.0 30.499999999999996 1.5999999999999999
vertex 5.0 29.499999999999996 0.0
vertex 5.0 29.499999999999996 1.5999999999999999
endloop
endfacet
facet normal -1.0 0.0 0.0
outer loop
vertex 5.0 29.499999999999996 0.0
vertex 5.0 30.499999999999996 1.5999999999999999
vertex 5.0 30.499999999999996 0.0
endloop
endfacet
facet normal -0.0 -1.0 -0.0
outer loop
vertex 6.0 29.499999999999996 1.5999999999999999
vertex 5.0 29.499999999999996 0.0
vertex 6.0 29.499999999999996 0.0
endloop
endfacet
facet normal -0.0 -1.0 -0.0
outer loop
vertex 5.0 29.499999999999996 0.0
vertex 6.0 29.499999999999996 1.5999999999999999
vertex 5.0 29.499999999999996 1.5999999999999999
endloop
endfacet
facet normal -1.0 0.0 0.0
outer loop
vertex 80.0 25.5 3.5
vertex 80.0 26.999999999999996 2.5000000000000004
vertex 80.0 25.5 0.0
endloop
endfacet
facet normal -1.0 0.0 0.0
outer loop
vertex 80.0 26.999999999999996 2.5000000000000004
vertex 80.0 25.5 3.5
vertex 80.0 34.49999999999999 3.5
endloop
endfacet
facet normal -1.0 0.0 0.0
outer loop
vertex 80.0 26.999999999999996 2.5000000000000004
vertex 80.0 34.49999999999999 3.5
vertex 80.0 32.99999999999999 2.5000000000000004
endloop
endfacet
facet normal -1.0 0.0 0.0
outer loop
vertex 80.0 32.99999999999999 2.5000000000000004
vertex 80.0 34.49999999999999 3.5
vertex 80.0 32.99999999999999 0.0
endloop
endfacet
facet normal -1.0 0.0 0.0
outer loop
vertex 80.0 32.99999999999999 0.0
vertex 80.0 34.49999999999999 3.5
vertex 80.0 34.49999999999999 0.0
endloop
endfacet
facet normal -1.0 0.0 0.0
outer loop
vertex 80.0 26.999999999999996 0.0
vertex 80.0 25.5 0.0
vertex 80.0 26.999999999999996 2.5000000000000004
endloop
endfacet
facet normal -0.19611613513818413 0.9805806756909201 0.0
outer loop
vertex 80.0 34.49999999999999 3.5
vertex 87.50000000000001 35.99999999999999 0.0
vertex 80.0 34.49999999999999 0.0
endloop
endfacet
facet normal -0.19611613513818413 0.9805806756909201 0.0
outer loop
vertex 87.50000000000001 35.99999999999999 0.0
vertex 80.0 34.49999999999999 3.5
vertex 87.50000000000001 35.99999999999999 3.5
endloop
endfacet
facet normal -1.0 0.0 0.0
outer loop
vertex 87.50000000000001 22.499999999999996 3.9999999999999996
vertex 87.50000000000001 23.999999999999996 3.5
vertex 87.50000000000001 22.499999999999996 0.0
endloop
endfacet
facet normal -1.0 0.0 0.0
outer loop
vertex 87.50000000000001 23.999999999999996 3.5
vertex 87.50000000000001 22.499999999999996 3.9999999999999996
vertex 87.50000000000001 37.5 3.9999999999999996
endloop
endfacet
facet normal -1.0 0.0 0.0
outer loop
vertex 87.50000000000001 23.999999999999996 3.5
vertex 87.50000000000001 37.5 3.9999999999999996
vertex 87.50000000000001 35.99999999999999 3.5
endloop
endfacet
facet normal -1.0 0.0 0.0
outer loop
vertex 87.50000000000001 35.99999999999999 3.5
vertex 87.50000000000001 37.5 3.9999999999999996
vertex 87.50000000000001 35.99999999999999 0.0
endloop
endfacet
facet normal -1.0 0.0 0.0
outer loop
vertex 87.50000000000001 35.99999999999999 0.0
vertex 87.50000000000001 37.5 3.9999999999999996
vertex 87.50000000000001 37.5 0.0
endloop
endfacet
facet normal -1.0 0.0 0.0
outer loop
vertex 87.50000000000001 23.999999999999996 0.0
vertex 87.50000000000001 22.499999999999996 0.0
vertex 87.50000000000001 23.999999999999996 3.5
endloop
endfacet
facet normal -0.0 -1.0 -0.0
outer loop
vertex 90.0 22.499999999999996 3.9999999999999996
vertex 87.50000000000001 22.499999999999996 0.0
vertex 90.0 22.499999999999996 0.0
endloop
endfacet
facet normal -0.0 -1.0 -0.0
outer loop
vertex 87.50000000000001 22.499999999999996 0.0
vertex 90.0 22.499999999999996 3.9999999999999996
vertex 87.50000000000001 22.499999999999996 3.9999999999999996
endloop
endfacet
facet normal 0.0 0.0 1.0
outer loop
vertex 14.00000000000001 22.5 3.0
vertex 11.50000000000001 35.0 3.0
vertex 11.50000000000001 24.999999999999996 3.0
endloop
endfacet
facet normal 0.0 0.0 1.0
outer loop
vertex 11.50000000000001 35.0 3.0
vertex 14.00000000000001 22.5 3.0
vertex 14.00000000000001 37.5 3.0
endloop
endfacet
facet normal -0.03224129401095811 0.9994801143396996 0.0
outer loop
vertex 33.50000000000001 31.499999999999993 2.5000000000000004
vertex 80.0 32.99999999999999 0.0
vertex 33.50000000000001 31.499999999999993 0.0
endloop
endfacet
facet normal -0.03224129401095811 0.9994801143396996 0.0
outer loop
vertex 80.0 32.99999999999999 0.0
vertex 33.50000000000001 31.499999999999993 2.5000000000000004
vertex 80.0 32.99999999999999 2.5000000000000004
endloop
endfacet
facet normal -0.7071067811865477 0.7071067811865474 0.0
outer loop
vertex 14.00000000000001 37.5 3.0
vertex 11.50000000000001 35.0 0.0
vertex 11.50000000000001 35.0 3.0
endloop
endfacet
facet normal -0.7071067811865477 0.7071067811865474 0.0
outer loop
vertex 11.50000000000001 35.0 0.0
vertex 14.00000000000001 37.5 3.0
vertex 14.00000000000001 37.5 0.0
endloop
endfacet
facet normal 0.0 1.0 0.0
outer loop
vertex 5.0 30.499999999999996 1.5999999999999999
vertex 6.0 30.499999999999996 0.0
vertex 5.0 30.499999999999996 0.0
endloop
endfacet
facet normal 0.0 1.0 0.0
outer loop
vertex 6.0 30.499999999999996 0.0
vertex 5.0 30.499999999999996 1.5999999999999999
vertex 6.0 30.499999999999996 1.5999999999999999
endloop
endfacet
facet normal -0.7071067811865474 -0.7071067811865477 0.0
outer loop
vertex 14.00000000000001 22.5 3.0
vertex 11.50000000000001 24.999999999999996 0.0
vertex 14.00000000000001 22.5 0.0
endloop
endfacet
facet normal -0.7071067811865474 -0.7071067811865477 0.0
outer loop
vertex 11.50000000000001 24.999999999999996 0.0
vertex 14.00000000000001 22.5 3.0
vertex 11.50000000000001 24.999999999999996 3.0
endloop
endfacet
facet normal 0.0 1.0 0.0
outer loop
vertex 26.000000000000007 37.0 3.9999999999999996
vertex 27.500000000000007 37.0 0.0
vertex 26.000000000000007 37.0 0.0
endloop
endfacet
facet normal 0.0 1.0 0.0
outer loop
vertex 27.500000000000007 37.0 0.0
vertex 26.000000000000007 37.0 3.9999999999999996
vertex 27.500000000000007 37.0 3.9999999999999996
endloop
endfacet
facet normal -1.0 0.0 0.0
outer loop
vertex 26.000000000000007 22.999999999999993 3.9999999999999996
vertex 26.000000000000007 23.999999999999996 3.0
vertex 26.000000000000007 22.999999999999993 0.0
endloop
endfacet
facet normal -1.0 0.0 0.0
outer loop
vertex 26.000000000000007 23.999999999999996 3.0
vertex 26.000000000000007 22.999999999999993 3.9999999999999996
vertex 26.000000000000007 37.0 3.9999999999999996
endloop
endfacet
facet normal -1.0 0.0 0.0
outer loop
vertex 26.000000000000007 23.999999999999996 3.0
vertex 26.000000000000007 37.0 3.9999999999999996
vertex 26.000000000000007 24.999999999999996 3.0
endloop
endfacet
facet normal -1.0 0.0 0.0
outer loop
vertex 26.000000000000007 24.999999999999996 3.0
vertex 26.000000000000007 37.0 3.9999999999999996
vertex 26.000000000000007 24.999999999999996 0.0
endloop
endfacet
facet normal -1.0 0.0 0.0
outer loop
vertex 26.000000000000007 24.999999999999996 0.0
vertex 26.000000000000007 37.0 3.9999999999999996
vertex 26.000000000000007 35.0 3.0
endloop
endfacet
facet normal -1.0 0.0 0.0
outer loop
vertex 26.000000000000007 35.0 3.0
vertex 26.000000000000007 37.0 3.9999999999999996
vertex 26.000000000000007 35.99999999999999 3.0
endloop
endfacet
facet normal -1.0 0.0 0.0
outer loop
vertex 26.000000000000007 35.99999999999999 3.0
vertex 26.000000000000007 37.0 3.9999999999999996
vertex 26.000000000000007 35.99999999999999 0.0
endloop
endfacet
facet normal -1.0 0.0 0.0
outer loop
vertex 26.000000000000007 35.99999999999999 0.0
vertex 26.000000000000007 37.0 3.9999999999999996
vertex 26.000000000000007 37.0 0.0
endloop
endfacet
facet normal -1.0 0.0 0.0
outer loop
vertex 26.000000000000007 35.0 0.0
vertex 26.000000000000007 24.999999999999996 0.0
vertex 26.000000000000007 35.0 3.0
endloop
endfacet
facet normal -1.0 0.0 0.0
outer loop
vertex 26.000000000000007 23.999999999999996 0.0
vertex 26.000000000000007 22.999999999999993 0.0
vertex 26.000000000000007 23.999999999999996 3.0
endloop
endfacet
facet normal 0.0 -1.0 0.0
outer loop
vertex 27.500000000000007 22.999999999999993 3.9999999999999996
vertex 26.000000000000007 22.999999999999993 0.0
vertex 27.500000000000007 22.999999999999993 0.0
endloop
endfacet
facet normal 0.0 -1.0 0.0
outer loop
vertex 26.000000000000007 22.999999999999993 0.0
vertex 27.500000000000007 22.999999999999993 3.9999999999999996
vertex 26.000000000000007 22.999999999999993 3.9999999999999996
endloop
endfacet
facet normal 0.0 0.0 1.0
outer loop
vertex 27.500000000000007 22.999999999999993 3.9999999999999996
vertex 26.000000000000007 37.0 3.9999999999999996
vertex 26.000000000000007 22.999999999999993 3.9999999999999996
endloop
endfacet
facet normal 0.0 0.0 1.0
outer loop
vertex 26.000000000000007 37.0 3.9999999999999996
vertex 27.500000000000007 22.999999999999993 3.9999999999999996
vertex 27.500000000000007 37.0 3.9999999999999996
endloop
endfacet
facet normal -1.0 0.0 0.0
outer loop
vertex 14.00000000000001 37.5 3.9999999999999996
vertex 14.00000000000001 22.5 3.0
vertex 14.00000000000001 22.5 3.9999999999999996
endloop
endfacet
facet normal -1.0 0.0 0.0
outer loop
vertex 14.00000000000001 22.5 3.0
vertex 14.00000000000001 37.5 3.9999999999999996
vertex 14.00000000000001 37.5 3.0
endloop
endfacet
facet normal 0.0 0.0 1.0
outer loop
vertex 16.00000000000001 22.5 3.9999999999999996
vertex 14.00000000000001 37.5 3.9999999999999996
vertex 14.00000000000001 22.5 3.9999999999999996
endloop
endfacet
facet normal 0.0 0.0 1.0
outer loop
vertex 14.00000000000001 37.5 3.9999999999999996
vertex 16.00000000000001 22.5 3.9999999999999996
vertex 16.00000000000001 37.5 3.9999999999999996
endloop
endfacet
facet normal -0.04993761694389214 -0.9987523388778446 0.0
outer loop
vertex 26.000000000000007 35.0 3.0
vertex 16.00000000000001 35.5 0.0
vertex 26.000000000000007 35.0 0.0
endloop
endfacet
facet normal -0.04993761694389214 -0.9987523388778446 0.0
outer loop
vertex 16.00000000000001 35.5 0.0
vertex 26.000000000000007 35.0 3.0
vertex 16.00000000000001 35.5 3.0
endloop
endfacet
facet normal 0.0 1.0 0.0
outer loop
vertex 14.00000000000001 37.5 3.0
vertex 16.00000000000001 37.5 0.0
vertex 14.00000000000001 37.5 0.0
endloop
endfacet
facet normal 0.0 1.0 0.0
outer loop
vertex 16.00000000000001 37.5 0.0
vertex 14.00000000000001 37.5 3.0
vertex 16.00000000000001 37.5 3.9999999999999996
endloop
endfacet
facet normal 0.0 1.0 0.0
outer loop
vertex 16.00000000000001 37.5 3.9999999999999996
vertex 14.00000000000001 37.5 3.0
vertex 14.00000000000001 37.5 3.9999999999999996
endloop
endfacet
facet normal 1.0 0.0 0.0
outer loop
vertex 16.00000000000001 35.5 0.0
vertex 16.00000000000001 24.499999999999996 3.0
vertex 16.00000000000001 24.499999999999996 0.0
endloop
endfacet
facet normal 1.0 0.0 0.0
outer loop
vertex 16.00000000000001 37.5 0.0
vertex 16.00000000000001 36.49999999999999 3.0
vertex 16.00000000000001 36.49999999999999 0.0
endloop
endfacet
facet normal 1.0 0.0 0.0
outer loop
vertex 16.00000000000001 23.499999999999996 0.0
vertex 16.00000000000001 22.5 3.9999999999999996
vertex 16.00000000000001 22.5 0.0
endloop
endfacet
facet normal 1.0 0.0 0.0
outer loop
vertex 16.00000000000001 22.5 3.9999999999999996
vertex 16.00000000000001 23.499999999999996 0.0
vertex 16.00000000000001 23.499999999999996 3.0
endloop
endfacet
facet normal 1.0 0.0 0.0
outer loop
vertex 16.00000000000001 22.5 3.9999999999999996
vertex 16.00000000000001 23.499999999999996 3.0
vertex 16.00000000000001 37.5 3.9999999999999996
endloop
endfacet
facet normal 1.0 0.0 0.0
outer loop
vertex 16.00000000000001 37.5 3.9999999999999996
vertex 16.00000000000001 23.499999999999996 3.0
vertex 16.00000000000001 24.499999999999996 3.0
endloop
endfacet
facet normal 1.0 0.0 0.0
outer loop
vertex 16.00000000000001 37.5 3.9999999999999996
vertex 16.00000000000001 24.499999999999996 3.0
vertex 16.00000000000001 35.5 3.0
endloop
endfacet
facet normal 1.0 0.0 0.0
outer loop
vertex 16.00000000000001 35.5 3.0
vertex 16.00000000000001 24.499999999999996 3.0
vertex 16.00000000000001 35.5 0.0
endloop
endfacet
facet normal 1.0 0.0 0.0
outer loop
vertex 16.00000000000001 37.5 3.9999999999999996
vertex 16.00000000000001 35.5 3.0
vertex 16.00000000000001 36.49999999999999 3.0
endloop
endfacet
facet normal 1.0 0.0 0.0
outer loop
vertex 16.00000000000001 37.5 3.9999999999999996
vertex 16.00000000000001 36.49999999999999 3.0
vertex 16.00000000000001 37.5 0.0
endloop
endfacet
facet normal 0.0 -1.0 0.0
outer loop
vertex 16.00000000000001 22.5 3.9999999999999996
vertex 14.00000000000001 22.5 0.0
vertex 16.00000000000001 22.5 0.0
endloop
endfacet
facet normal 0.0 -1.0 0.0
outer loop
vertex 14.00000000000001 22.5 0.0
vertex 16.00000000000001 22.5 3.9999999999999996
vertex 14.00000000000001 22.5 3.0
endloop
endfacet
facet normal 0.0 -1.0 0.0
outer loop
vertex 14.00000000000001 22.5 3.0
vertex 16.00000000000001 22.5 3.9999999999999996
vertex 14.00000000000001 22.5 3.9999999999999996
endloop
endfacet
facet normal 0.0 0.0 1.0
outer loop
vertex 26.000000000000007 35.0 3.0
vertex 16.00000000000001 36.49999999999999 3.0
vertex 16.00000000000001 35.5 3.0
endloop
endfacet
facet normal 0.0 0.0 1.0
outer loop
vertex 16.00000000000001 36.49999999999999 3.0
vertex 26.000000000000007 35.0 3.0
vertex 26.000000000000007 35.99999999999999 3.0
endloop
endfacet
facet normal 0.0 -1.0 0.0
outer loop
vertex 33.50000000000001 27.8 3.0
vertex 30.000000000000007 27.8 0.0
vertex 33.50000000000001 27.8 0.0
endloop
endfacet
facet normal 0.0 -1.0 0.0
outer loop
vertex 30.000000000000007 27.8 0.0
vertex 33.50000000000001 27.8 3.0
vertex 30.000000000000007 27.8 3.0
endloop
endfacet
facet normal -0.5547001962252289 0.8320502943378438 0.0
outer loop
vertex 6.0 30.999999999999993 2.5
vertex 10.500000000000012 34.0 0.0
vertex 6.0 30.999999999999993 0.0
endloop
endfacet
facet normal -0.5547001962252289 0.8320502943378438 0.0
outer loop
vertex 10.500000000000012 34.0 0.0
vertex 6.0 30.999999999999993 2.5
vertex 10.500000000000012 34.0 2.5
endloop
endfacet
facet normal -0.0 -1.0 -0.0
outer loop
vertex 11.50000000000001 25.999999999999996 2.5
vertex 10.500000000000012 25.999999999999996 0.0
vertex 11.50000000000001 25.999999999999996 0.0
endloop
endfacet
facet normal -0.0 -1.0 -0.0
outer loop
vertex 10.500000000000012 25.999999999999996 0.0
vertex 11.50000000000001 25.999999999999996 2.5
vertex 10.500000000000012 25.999999999999996 2.5
endloop
endfacet
facet normal 0.0 1.0 0.0
outer loop
vertex 10.500000000000012 34.0 2.5
vertex 11.50000000000001 34.0 0.0
vertex 10.500000000000012 34.0 0.0
endloop
endfacet
facet normal 0.0 1.0 0.0
outer loop
vertex 11.50000000000001 34.0 0.0
vertex 10.500000000000012 34.0 2.5
vertex 11.50000000000001 34.0 2.5
endloop
endfacet
facet normal -0.5547001962252281 -0.8320502943378443 -0.0
outer loop
vertex 10.500000000000012 25.999999999999996 2.5
vertex 6.0 28.999999999999996 0.0
vertex 10.500000000000012 25.999999999999996 0.0
endloop
endfacet
facet normal -0.5547001962252281 -0.8320502943378443 -0.0
outer loop
vertex 6.0 28.999999999999996 0.0
vertex 10.500000000000012 25.999999999999996 2.5
vertex 6.0 28.999999999999996 2.5
endloop
endfacet
facet normal 0.04993761694389214 -0.9987523388778446 0.0
outer loop
vertex 26.000000000000007 23.999999999999996 3.0
vertex 16.00000000000001 23.499999999999996 0.0
vertex 26.000000000000007 23.999999999999996 0.0
endloop
endfacet
facet normal 0.04993761694389214 -0.9987523388778446 0.0
outer loop
vertex 16.00000000000001 23.499999999999996 0.0
vertex 26.000000000000007 23.999999999999996 3.0
vertex 16.00000000000001 23.499999999999996 3.0
endloop
endfacet
facet normal -0.049937616943892135 0.9987523388778446 0.0
outer loop
vertex 16.00000000000001 24.499999999999996 3.0
vertex 26.000000000000007 24.999999999999996 0.0
vertex 16.00000000000001 24.499999999999996 0.0
endloop
endfacet
facet normal -0.049937616943892135 0.9987523388778446 0.0
outer loop
vertex 26.000000000000007 24.999999999999996 0.0
vertex 16.00000000000001 24.499999999999996 3.0
vertex 26.000000000000007 24.999999999999996 3.0
endloop
endfacet
facet normal 0.0 0.0 1.0
outer loop
vertex 26.000000000000007 23.999999999999996 3.0
vertex 16.00000000000001 24.499999999999996 3.0
vertex 16.00000000000001 23.499999999999996 3.0
endloop
endfacet
facet normal 0.0 0.0 1.0
outer loop
vertex 16.00000000000001 24.499999999999996 3.0
vertex 26.000000000000007 23.999999999999996 3.0
vertex 26.000000000000007 24.999999999999996 3.0
endloop
endfacet
facet normal 0.0 0.0 1.0
outer loop
vertex 33.50000000000001 27.8 3.0
vertex 30.000000000000007 32.19999999999999 3.0
vertex 30.000000000000007 27.8 3.0
endloop
endfacet
facet normal 0.0 0.0 1.0
outer loop
vertex 30.000000000000007 32.19999999999999 3.0
vertex 33.50000000000001 27.8 3.0
vertex 33.50000000000001 32.19999999999999 3.0
endloop
endfacet
facet normal 0.0 1.0 0.0
outer loop
vertex 30.000000000000007 32.19999999999999 3.0
vertex 33.50000000000001 32.19999999999999 0.0
vertex 30.000000000000007 32.19999999999999 0.0
endloop
endfacet
facet normal 0.0 1.0 0.0
outer loop
vertex 33.50000000000001 32.19999999999999 0.0
vertex 30.000000000000007 32.19999999999999 3.0
vertex 33.50000000000001 32.19999999999999 3.0
endloop
endfacet
facet normal 0.0 0.0 1.0
outer loop
vertex 30.0 26.499999999999996 3.5
vertex 27.500000000000007 33.49999999999999 3.5
vertex 27.500000000000007 26.499999999999996 3.5
endloop
endfacet
facet normal 0.0 0.0 1.0
outer loop
vertex 27.500000000000007 33.49999999999999 3.5
vertex 30.0 26.499999999999996 3.5
vertex 30.0 33.49999999999999 3.5
endloop
endfacet
facet normal -1.0 0.0 0.0
outer loop
vertex 6.0 28.999999999999996 2.5
vertex 6.0 29.499999999999996 1.5999999999999999
vertex 6.0 28.999999999999996 0.0
endloop
endfacet
facet normal -1.0 0.0 0.0
outer loop
vertex 6.0 29.499999999999996 1.5999999999999999
vertex 6.0 28.999999999999996 2.5
vertex 6.0 30.999999999999993 2.5
endloop
endfacet
facet normal -1.0 0.0 0.0
outer loop
vertex 6.0 29.499999999999996 1.5999999999999999
vertex 6.0 30.999999999999993 2.5
vertex 6.0 30.499999999999996 1.5999999999999999
endloop
endfacet
facet normal -1.0 0.0 0.0
outer loop
vertex 6.0 30.499999999999996 1.5999999999999999
vertex 6.0 30.999999999999993 2.5
vertex 6.0 30.499999999999996 0.0
endloop
endfacet
facet normal -1.0 0.0 0.0
outer loop
vertex 6.0 30.499999999999996 0.0
vertex 6.0 30.999999999999993 2.5
vertex 6.0 30.999999999999993 0.0
endloop
endfacet
facet normal -1.0 0.0 0.0
outer loop
vertex 6.0 29.499999999999996 0.0
vertex 6.0 28.999999999999996 0.0
vertex 6.0 29.499999999999996 1.5999999999999999
endloop
endfacet
facet normal 0.0 1.0 0.0
outer loop
vertex 27.500000000000007 33.49999999999999 3.5
vertex 30.0 33.49999999999999 0.0
vertex 27.500000000000007 33.49999999999999 0.0
endloop
endfacet
facet normal 0.0 1.0 0.0
outer loop
vertex 30.0 33.49999999999999 0.0
vertex 27.500000000000007 33.49999999999999 3.5
vertex 30.0 33.49999999999999 3.5
endloop
endfacet
endsolid 카드
